<?xml version="1.0" encoding="utf-8" standalone="no"?>
<!DOCTYPE svg PUBLIC "-//W3C//DTD SVG 1.1//EN"
  "http://www.w3.org/Graphics/SVG/1.1/DTD/svg11.dtd">
<svg xmlns:xlink="http://www.w3.org/1999/xlink" width="192.54528pt" height="126.2592pt" viewBox="0 0 192.54528 126.2592" xmlns="http://www.w3.org/2000/svg" version="1.1">
 <metadata>
  <rdf:RDF xmlns:dc="http://purl.org/dc/elements/1.1/" xmlns:cc="http://creativecommons.org/ns#" xmlns:rdf="http://www.w3.org/1999/02/22-rdf-syntax-ns#">
   <cc:Work>
    <dc:type rdf:resource="http://purl.org/dc/dcmitype/StillImage"/>
    <dc:date>2023-12-06T18:16:02.291716</dc:date>
    <dc:format>image/svg+xml</dc:format>
    <dc:creator>
     <cc:Agent>
      <dc:title>Matplotlib v3.6.2, https://matplotlib.org/</dc:title>
     </cc:Agent>
    </dc:creator>
   </cc:Work>
  </rdf:RDF>
 </metadata>
 <defs>
  <style type="text/css">*{stroke-linejoin: round; stroke-linecap: butt}</style>
 </defs>
 <g id="figure_1">
  <g id="patch_1">
   <path d="M 0 126.2592 
L 192.54528 126.2592 
L 192.54528 0 
L 0 0 
z
" style="fill: #ffffff"/>
  </g>
  <g id="axes_1">
   <g id="patch_2">
    <path d="M 34.72128 101.00736 
L 186.23232 101.00736 
L 186.23232 6.31296 
L 34.72128 6.31296 
z
" style="fill: #ffffff"/>
   </g>
   <g id="PolyCollection_1">
    <defs>
     <path id="mfedeb5b999" d="M 48.441998 -83.738057 
L 48.441998 -83.55112 
L 48.664779 -83.55112 
L 48.886725 -83.55112 
L 49.109168 -83.55112 
L 49.331253 -83.55112 
L 49.554101 -83.55112 
L 49.775804 -83.55112 
L 49.998505 -83.55112 
L 50.221932 -83.55112 
L 50.444617 -83.55112 
L 50.668268 -83.55112 
L 50.890486 -83.55112 
L 51.114366 -83.55112 
L 51.338787 -83.55112 
L 51.56209 -83.55112 
L 51.783748 -83.55112 
L 52.006571 -83.55112 
L 52.23048 -83.55112 
L 52.452716 -83.55112 
L 52.678356 -83.55112 
L 52.903008 -83.55112 
L 53.126046 -83.55112 
L 53.349432 -83.55112 
L 53.5737 -83.55112 
L 53.796033 -83.55112 
L 54.020801 -83.55112 
L 54.244987 -83.55112 
L 54.468311 -83.55112 
L 54.693504 -83.55112 
L 54.916756 -83.55112 
L 55.14025 -83.55112 
L 55.365026 -83.55112 
L 55.589251 -83.55112 
L 55.8136 -83.55112 
L 56.037104 -83.55112 
L 56.262328 -83.55112 
L 56.487784 -83.55112 
L 56.712842 -83.55112 
L 56.93584 -83.55112 
L 57.159965 -83.55112 
L 57.38407 -83.55112 
L 57.608784 -83.55112 
L 57.834237 -83.55112 
L 58.059408 -83.55112 
L 58.283237 -83.55112 
L 58.507375 -83.55112 
L 58.734084 -83.55112 
L 58.95729 -83.55112 
L 59.181925 -83.55112 
L 59.405343 -83.55112 
L 59.629376 -83.55112 
L 59.854772 -83.55112 
L 60.079835 -83.55112 
L 60.304854 -83.55112 
L 60.527502 -83.55112 
L 60.75184 -83.55112 
L 60.977216 -83.55112 
L 61.20202 -83.55112 
L 61.425949 -83.55112 
L 61.649137 -83.55112 
L 61.873361 -83.55112 
L 62.097597 -83.55112 
L 62.322407 -83.55112 
L 62.546312 -83.55112 
L 62.769732 -83.55112 
L 62.994726 -83.55112 
L 63.218126 -83.55112 
L 63.442397 -83.55112 
L 63.667295 -83.55112 
L 63.89311 -83.55112 
L 64.116311 -83.55112 
L 64.340207 -83.55112 
L 64.563658 -83.55112 
L 64.787839 -83.55112 
L 65.01179 -83.55112 
L 65.235053 -83.55112 
L 65.458402 -83.55112 
L 65.68496 -83.55112 
L 65.909745 -83.55112 
L 66.132713 -83.55112 
L 66.357185 -83.55112 
L 66.581618 -83.55112 
L 66.80565 -83.55112 
L 67.02855 -83.55112 
L 67.253594 -83.55112 
L 67.478176 -83.55112 
L 67.701816 -83.55112 
L 67.927507 -83.55112 
L 68.151018 -83.55112 
L 68.375168 -83.55112 
L 68.599984 -83.55112 
L 68.824739 -83.55112 
L 69.049698 -83.55112 
L 69.27306 -83.55112 
L 69.498892 -83.55112 
L 69.7238 -83.55112 
L 69.949312 -83.55112 
L 70.173885 -83.55112 
L 70.398097 -83.55112 
L 70.622276 -83.55112 
L 70.84974 -83.55112 
L 71.073842 -83.55112 
L 71.298293 -83.55112 
L 71.523345 -83.55112 
L 71.747408 -83.55112 
L 71.972987 -83.55112 
L 72.196576 -83.55112 
L 72.42225 -83.55112 
L 72.646788 -83.55112 
L 72.873348 -83.55112 
L 73.097904 -83.55112 
L 73.323972 -83.55112 
L 73.546992 -83.55112 
L 73.771276 -83.55112 
L 73.995995 -83.55112 
L 74.221081 -83.55112 
L 74.445825 -83.55112 
L 74.671271 -83.55112 
L 74.896684 -83.55112 
L 75.121943 -83.55112 
L 75.346515 -83.55112 
L 75.57133 -83.55112 
L 75.795872 -83.55112 
L 76.020745 -83.55112 
L 76.245143 -83.55112 
L 76.470849 -83.55112 
L 76.695608 -83.55112 
L 76.919933 -83.55112 
L 77.146688 -83.55112 
L 77.37081 -83.55112 
L 77.59519 -83.55112 
L 77.820677 -83.55112 
L 78.044313 -83.55112 
L 78.268455 -83.55112 
L 78.49235 -83.55112 
L 78.71815 -83.55112 
L 78.94377 -83.55112 
L 79.167376 -83.55112 
L 79.392752 -83.55112 
L 79.617494 -83.55112 
L 79.844115 -83.55112 
L 80.069081 -83.55112 
L 80.293538 -83.55112 
L 80.517843 -83.55112 
L 80.74256 -83.55112 
L 80.96786 -83.55112 
L 81.193551 -83.55112 
L 81.417957 -83.55112 
L 81.642508 -83.55112 
L 81.868662 -83.55112 
L 82.093033 -83.55112 
L 82.317898 -83.55112 
L 82.542444 -83.55112 
L 82.766753 -83.55112 
L 82.994452 -83.55112 
L 83.218387 -83.55112 
L 83.443232 -83.55112 
L 83.667075 -83.55112 
L 83.891677 -83.55112 
L 84.116408 -83.55112 
L 84.342105 -83.55112 
L 84.566516 -83.55112 
L 84.791379 -83.55112 
L 85.016598 -83.55112 
L 85.240805 -83.55112 
L 85.467154 -83.55112 
L 85.693244 -83.55112 
L 85.917369 -83.55112 
L 86.142172 -83.55112 
L 86.368129 -83.55112 
L 86.591998 -83.55112 
L 86.818388 -83.55112 
L 87.042718 -83.55112 
L 87.266943 -83.55112 
L 87.490546 -83.55112 
L 87.716869 -83.55112 
L 87.942494 -83.55112 
L 88.167776 -83.55112 
L 88.392525 -83.55112 
L 88.61592 -83.55112 
L 88.840087 -83.55112 
L 89.065934 -83.55112 
L 89.290479 -83.55112 
L 89.514216 -83.55112 
L 89.739826 -83.55112 
L 89.963971 -83.55112 
L 90.189568 -83.55112 
L 90.41392 -83.55112 
L 90.639845 -83.55112 
L 90.863501 -83.55112 
L 91.08838 -83.55112 
L 91.312576 -83.55112 
L 91.536437 -83.55112 
L 91.762043 -83.55112 
L 91.987783 -83.55112 
L 92.211167 -83.55112 
L 92.43457 -83.55112 
L 92.659456 -83.55112 
L 92.883846 -83.55112 
L 93.1085 -83.55112 
L 93.333727 -83.55112 
L 93.558573 -83.55112 
L 93.783303 -83.55112 
L 94.008805 -83.55112 
L 94.232665 -83.55112 
L 94.456207 -83.55112 
L 94.681516 -83.55112 
L 94.906277 -83.55112 
L 95.130585 -83.55112 
L 95.354562 -83.55112 
L 95.578276 -83.55112 
L 95.804789 -83.55112 
L 96.029243 -83.55112 
L 96.252287 -83.55112 
L 96.476774 -83.55112 
L 96.700402 -83.55112 
L 96.925988 -83.55112 
L 97.151409 -83.55112 
L 97.375786 -83.55112 
L 97.601273 -83.55112 
L 97.825567 -83.55112 
L 98.048386 -83.55112 
L 98.273511 -83.55112 
L 98.498475 -83.55112 
L 98.722144 -83.55112 
L 98.946613 -83.55112 
L 99.172023 -83.55112 
L 99.396706 -83.55112 
L 99.621307 -83.55112 
L 99.845886 -83.55112 
L 100.070152 -83.55112 
L 100.296271 -83.55112 
L 100.519992 -83.55112 
L 100.743882 -83.55112 
L 100.968799 -83.55112 
L 101.193717 -83.55112 
L 101.415926 -83.55112 
L 101.640969 -83.55112 
L 101.640969 -83.543156 
L 101.640969 -83.543156 
L 101.415926 -83.552817 
L 101.193717 -83.549788 
L 100.968799 -83.553411 
L 100.743882 -83.556868 
L 100.519992 -83.552137 
L 100.296271 -83.573998 
L 100.070152 -83.562003 
L 99.845886 -83.576056 
L 99.621307 -83.578706 
L 99.396706 -83.591785 
L 99.172023 -83.590982 
L 98.946613 -83.614993 
L 98.722144 -83.618914 
L 98.498475 -83.616207 
L 98.273511 -83.641562 
L 98.048386 -83.637404 
L 97.825567 -83.657041 
L 97.601273 -83.683967 
L 97.375786 -83.6918 
L 97.151409 -83.705205 
L 96.925988 -83.734313 
L 96.700402 -83.735585 
L 96.476774 -83.766552 
L 96.252287 -83.778626 
L 96.029243 -83.798757 
L 95.804789 -83.848347 
L 95.578276 -83.86351 
L 95.354562 -83.881398 
L 95.130585 -83.918169 
L 94.906277 -83.951904 
L 94.681516 -83.987327 
L 94.456207 -84.016634 
L 94.232665 -84.059672 
L 94.008805 -84.094046 
L 93.783303 -84.161591 
L 93.558573 -84.182589 
L 93.333727 -84.258071 
L 93.1085 -84.301994 
L 92.883846 -84.340321 
L 92.659456 -84.412483 
L 92.43457 -84.454256 
L 92.211167 -84.537107 
L 91.987783 -84.611704 
L 91.762043 -84.685573 
L 91.536437 -84.749071 
L 91.312576 -84.836665 
L 91.08838 -84.923247 
L 90.863501 -85.014636 
L 90.639845 -85.111052 
L 90.41392 -85.219106 
L 90.189568 -85.326464 
L 89.963971 -85.438849 
L 89.739826 -85.554524 
L 89.514216 -85.672538 
L 89.290479 -85.807597 
L 89.065934 -85.952902 
L 88.840087 -86.077083 
L 88.61592 -86.255749 
L 88.392525 -86.388089 
L 88.167776 -86.576526 
L 87.942494 -86.751872 
L 87.716869 -86.930254 
L 87.490546 -87.120272 
L 87.266943 -87.297452 
L 87.042718 -87.50344 
L 86.818388 -87.706298 
L 86.591998 -87.927401 
L 86.368129 -88.124693 
L 86.142172 -88.353575 
L 85.917369 -88.567342 
L 85.693244 -88.779022 
L 85.467154 -89.017739 
L 85.240805 -89.220028 
L 85.016598 -89.417351 
L 84.791379 -89.668717 
L 84.566516 -89.858198 
L 84.342105 -90.098971 
L 84.116408 -90.311062 
L 83.891677 -90.490993 
L 83.667075 -90.715986 
L 83.443232 -90.953881 
L 83.218387 -91.134697 
L 82.994452 -91.362884 
L 82.766753 -91.566342 
L 82.542444 -91.759144 
L 82.317898 -91.957479 
L 82.093033 -92.148035 
L 81.868662 -92.369897 
L 81.642508 -92.586099 
L 81.417957 -92.733871 
L 81.193551 -92.972398 
L 80.96786 -93.181675 
L 80.74256 -93.365495 
L 80.517843 -93.53926 
L 80.293538 -93.729785 
L 80.069081 -93.99225 
L 79.844115 -94.124685 
L 79.617494 -94.34895 
L 79.392752 -94.534131 
L 79.167376 -94.701097 
L 78.94377 -94.932825 
L 78.71815 -95.108297 
L 78.49235 -95.263342 
L 78.268455 -95.420062 
L 78.044313 -95.639711 
L 77.820677 -95.83267 
L 77.59519 -95.998624 
L 77.37081 -96.172136 
L 77.146688 -96.32971 
L 76.919933 -96.511254 
L 76.695608 -96.659025 
L 76.470849 -96.852301 
L 76.245143 -97.015662 
L 76.020745 -97.091619 
L 75.795872 -97.286097 
L 75.57133 -97.429883 
L 75.346515 -97.649532 
L 75.121943 -97.754866 
L 74.896684 -97.918954 
L 74.671271 -98.10306 
L 74.445825 -98.250167 
L 74.221081 -98.38355 
L 73.995995 -98.624797 
L 73.771276 -98.74629 
L 73.546992 -98.927328 
L 73.323972 -99.094389 
L 73.097904 -99.375859 
L 72.873348 -99.578906 
L 72.646788 -99.722187 
L 72.42225 -99.916696 
L 72.196576 -100.118035 
L 71.972987 -100.342048 
L 71.747408 -100.551261 
L 71.523345 -100.786627 
L 71.298293 -100.906475 
L 71.073842 -101.271871 
L 70.84974 -101.36715 
L 70.622276 -101.671451 
L 70.398097 -101.697255 
L 70.173885 -102.002727 
L 69.949312 -102.108788 
L 69.7238 -102.233728 
L 69.498892 -102.497237 
L 69.27306 -102.455717 
L 69.049698 -102.466911 
L 68.824739 -102.754453 
L 68.599984 -102.628786 
L 68.375168 -102.795815 
L 68.151018 -102.702276 
L 67.927507 -102.730737 
L 67.701816 -102.728681 
L 67.478176 -102.606334 
L 67.253594 -102.610572 
L 67.02855 -102.515135 
L 66.80565 -102.467228 
L 66.581618 -102.159764 
L 66.357185 -102.305226 
L 66.132713 -102.046303 
L 65.909745 -101.924746 
L 65.68496 -101.971642 
L 65.458402 -101.796739 
L 65.235053 -101.484627 
L 65.01179 -101.34299 
L 64.787839 -101.261531 
L 64.563658 -101.129887 
L 64.340207 -100.971459 
L 64.116311 -100.705389 
L 63.89311 -100.746308 
L 63.667295 -100.591675 
L 63.442397 -100.42727 
L 63.218126 -100.126763 
L 62.994726 -100.155445 
L 62.769732 -99.878306 
L 62.546312 -99.863634 
L 62.322407 -99.760418 
L 62.097597 -99.502412 
L 61.873361 -99.343826 
L 61.649137 -99.390785 
L 61.425949 -99.214174 
L 61.20202 -99.174867 
L 60.977216 -99.019444 
L 60.75184 -99.080664 
L 60.527502 -98.917114 
L 60.304854 -98.750401 
L 60.079835 -98.960721 
L 59.854772 -98.821077 
L 59.629376 -98.73342 
L 59.405343 -98.742969 
L 59.181925 -98.780695 
L 58.95729 -98.704295 
L 58.734084 -98.800079 
L 58.507375 -98.90769 
L 58.283237 -98.650095 
L 58.059408 -98.933779 
L 57.834237 -98.792522 
L 57.608784 -98.837046 
L 57.38407 -98.744677 
L 57.159965 -98.788695 
L 56.93584 -98.789138 
L 56.712842 -98.787272 
L 56.487784 -98.857 
L 56.262328 -98.903137 
L 56.037104 -98.786798 
L 55.8136 -98.758749 
L 55.589251 -98.653288 
L 55.365026 -98.59542 
L 55.14025 -98.638141 
L 54.916756 -98.28843 
L 54.693504 -98.459285 
L 54.468311 -98.064228 
L 54.244987 -97.898874 
L 54.020801 -97.980839 
L 53.796033 -97.491262 
L 53.5737 -97.387478 
L 53.349432 -97.297101 
L 53.126046 -96.632336 
L 52.903008 -96.437985 
L 52.678356 -96.210874 
L 52.452716 -95.656439 
L 52.23048 -95.295976 
L 52.006571 -94.718868 
L 51.783748 -94.159279 
L 51.56209 -93.790816 
L 51.338787 -93.35136 
L 51.114366 -92.803977 
L 50.890486 -92.002035 
L 50.668268 -91.421385 
L 50.444617 -90.934465 
L 50.221932 -90.04556 
L 49.998505 -89.453116 
L 49.775804 -88.624579 
L 49.554101 -87.96032 
L 49.331253 -87.253719 
L 49.109168 -86.39922 
L 48.886725 -85.554808 
L 48.664779 -84.529106 
L 48.441998 -83.738057 
z
" style="stroke: #1f77b4; stroke-opacity: 0.6; stroke-width: 0.6576"/>
    </defs>
    <g clip-path="url(#p0bd1e02aac)">
     <use xlink:href="#mfedeb5b999" x="0" y="126.2592" style="fill: #1f77b4; fill-opacity: 0.6; stroke: #1f77b4; stroke-opacity: 0.6; stroke-width: 0.6576"/>
    </g>
   </g>
   <g id="matplotlib.axis_1">
    <g id="xtick_1">
     <g id="line2d_1">
      <defs>
       <path id="mb4961a577d" d="M 0 0 
L 0 -2.54272 
" style="stroke: #000000; stroke-width: 0.6576"/>
      </defs>
      <g>
       <use xlink:href="#mb4961a577d" x="40.3328" y="101.00736" style="stroke: #000000; stroke-width: 0.6576"/>
      </g>
     </g>
     <g id="line2d_2">
      <defs>
       <path id="mece05097d4" d="M 0 0 
L 0 2.54272 
" style="stroke: #000000; stroke-width: 0.6576"/>
      </defs>
      <g>
       <use xlink:href="#mece05097d4" x="40.3328" y="6.31296" style="stroke: #000000; stroke-width: 0.6576"/>
      </g>
     </g>
     <g id="text_1">
      <!-- $\mathdefault{0.00}$ -->
      <g transform="translate(32.63888 110.155733) scale(0.078912 -0.078912)">
       <defs>
        <path id="ArialMT-30" d="M 266 2259 
Q 266 3072 433 3567 
Q 600 4063 929 4331 
Q 1259 4600 1759 4600 
Q 2128 4600 2406 4451 
Q 2684 4303 2865 4023 
Q 3047 3744 3150 3342 
Q 3253 2941 3253 2259 
Q 3253 1453 3087 958 
Q 2922 463 2592 192 
Q 2263 -78 1759 -78 
Q 1097 -78 719 397 
Q 266 969 266 2259 
z
M 844 2259 
Q 844 1131 1108 757 
Q 1372 384 1759 384 
Q 2147 384 2411 759 
Q 2675 1134 2675 2259 
Q 2675 3391 2411 3762 
Q 2147 4134 1753 4134 
Q 1366 4134 1134 3806 
Q 844 3388 844 2259 
z
" transform="scale(0.015625)"/>
        <path id="ArialMT-2e" d="M 581 0 
L 581 641 
L 1222 641 
L 1222 0 
L 581 0 
z
" transform="scale(0.015625)"/>
       </defs>
       <use xlink:href="#ArialMT-30" transform="translate(0 0.125)"/>
       <use xlink:href="#ArialMT-2e" transform="translate(55.615234 0.125)"/>
       <use xlink:href="#ArialMT-30" transform="translate(83.398438 0.125)"/>
       <use xlink:href="#ArialMT-30" transform="translate(139.013672 0.125)"/>
      </g>
     </g>
    </g>
    <g id="xtick_2">
     <g id="line2d_3">
      <g>
       <use xlink:href="#mb4961a577d" x="68.3904" y="101.00736" style="stroke: #000000; stroke-width: 0.6576"/>
      </g>
     </g>
     <g id="line2d_4">
      <g>
       <use xlink:href="#mece05097d4" x="68.3904" y="6.31296" style="stroke: #000000; stroke-width: 0.6576"/>
      </g>
     </g>
     <g id="text_2">
      <!-- $\mathdefault{0.25}$ -->
      <g transform="translate(60.69648 110.155733) scale(0.078912 -0.078912)">
       <defs>
        <path id="ArialMT-32" d="M 3222 541 
L 3222 0 
L 194 0 
Q 188 203 259 391 
Q 375 700 629 1000 
Q 884 1300 1366 1694 
Q 2113 2306 2375 2664 
Q 2638 3022 2638 3341 
Q 2638 3675 2398 3904 
Q 2159 4134 1775 4134 
Q 1369 4134 1125 3890 
Q 881 3647 878 3216 
L 300 3275 
Q 359 3922 746 4261 
Q 1134 4600 1788 4600 
Q 2447 4600 2831 4234 
Q 3216 3869 3216 3328 
Q 3216 3053 3103 2787 
Q 2991 2522 2730 2228 
Q 2469 1934 1863 1422 
Q 1356 997 1212 845 
Q 1069 694 975 541 
L 3222 541 
z
" transform="scale(0.015625)"/>
        <path id="ArialMT-35" d="M 266 1200 
L 856 1250 
Q 922 819 1161 601 
Q 1400 384 1738 384 
Q 2144 384 2425 690 
Q 2706 997 2706 1503 
Q 2706 1984 2436 2262 
Q 2166 2541 1728 2541 
Q 1456 2541 1237 2417 
Q 1019 2294 894 2097 
L 366 2166 
L 809 4519 
L 3088 4519 
L 3088 3981 
L 1259 3981 
L 1013 2750 
Q 1425 3038 1878 3038 
Q 2478 3038 2890 2622 
Q 3303 2206 3303 1553 
Q 3303 931 2941 478 
Q 2500 -78 1738 -78 
Q 1113 -78 717 272 
Q 322 622 266 1200 
z
" transform="scale(0.015625)"/>
       </defs>
       <use xlink:href="#ArialMT-30" transform="translate(0 0.125)"/>
       <use xlink:href="#ArialMT-2e" transform="translate(55.615234 0.125)"/>
       <use xlink:href="#ArialMT-32" transform="translate(83.398438 0.125)"/>
       <use xlink:href="#ArialMT-35" transform="translate(139.013672 0.125)"/>
      </g>
     </g>
    </g>
    <g id="xtick_3">
     <g id="line2d_5">
      <g>
       <use xlink:href="#mb4961a577d" x="96.448" y="101.00736" style="stroke: #000000; stroke-width: 0.6576"/>
      </g>
     </g>
     <g id="line2d_6">
      <g>
       <use xlink:href="#mece05097d4" x="96.448" y="6.31296" style="stroke: #000000; stroke-width: 0.6576"/>
      </g>
     </g>
     <g id="text_3">
      <!-- $\mathdefault{0.50}$ -->
      <g transform="translate(88.75408 110.155733) scale(0.078912 -0.078912)">
       <use xlink:href="#ArialMT-30" transform="translate(0 0.125)"/>
       <use xlink:href="#ArialMT-2e" transform="translate(55.615234 0.125)"/>
       <use xlink:href="#ArialMT-35" transform="translate(83.398438 0.125)"/>
       <use xlink:href="#ArialMT-30" transform="translate(139.013672 0.125)"/>
      </g>
     </g>
    </g>
    <g id="xtick_4">
     <g id="line2d_7">
      <g>
       <use xlink:href="#mb4961a577d" x="124.5056" y="101.00736" style="stroke: #000000; stroke-width: 0.6576"/>
      </g>
     </g>
     <g id="line2d_8">
      <g>
       <use xlink:href="#mece05097d4" x="124.5056" y="6.31296" style="stroke: #000000; stroke-width: 0.6576"/>
      </g>
     </g>
     <g id="text_4">
      <!-- $\mathdefault{0.75}$ -->
      <g transform="translate(116.81168 110.155733) scale(0.078912 -0.078912)">
       <defs>
        <path id="ArialMT-37" d="M 303 3981 
L 303 4522 
L 3269 4522 
L 3269 4084 
Q 2831 3619 2401 2847 
Q 1972 2075 1738 1259 
Q 1569 684 1522 0 
L 944 0 
Q 953 541 1156 1306 
Q 1359 2072 1739 2783 
Q 2119 3494 2547 3981 
L 303 3981 
z
" transform="scale(0.015625)"/>
       </defs>
       <use xlink:href="#ArialMT-30" transform="translate(0 0.125)"/>
       <use xlink:href="#ArialMT-2e" transform="translate(55.615234 0.125)"/>
       <use xlink:href="#ArialMT-37" transform="translate(83.398438 0.125)"/>
       <use xlink:href="#ArialMT-35" transform="translate(139.013672 0.125)"/>
      </g>
     </g>
    </g>
    <g id="xtick_5">
     <g id="line2d_9">
      <g>
       <use xlink:href="#mb4961a577d" x="152.5632" y="101.00736" style="stroke: #000000; stroke-width: 0.6576"/>
      </g>
     </g>
     <g id="line2d_10">
      <g>
       <use xlink:href="#mece05097d4" x="152.5632" y="6.31296" style="stroke: #000000; stroke-width: 0.6576"/>
      </g>
     </g>
     <g id="text_5">
      <!-- $\mathdefault{1.00}$ -->
      <g transform="translate(144.86928 110.155733) scale(0.078912 -0.078912)">
       <defs>
        <path id="ArialMT-31" d="M 2384 0 
L 1822 0 
L 1822 3584 
Q 1619 3391 1289 3197 
Q 959 3003 697 2906 
L 697 3450 
Q 1169 3672 1522 3987 
Q 1875 4303 2022 4600 
L 2384 4600 
L 2384 0 
z
" transform="scale(0.015625)"/>
       </defs>
       <use xlink:href="#ArialMT-31" transform="translate(0 0.125)"/>
       <use xlink:href="#ArialMT-2e" transform="translate(55.615234 0.125)"/>
       <use xlink:href="#ArialMT-30" transform="translate(83.398438 0.125)"/>
       <use xlink:href="#ArialMT-30" transform="translate(139.013672 0.125)"/>
      </g>
     </g>
    </g>
    <g id="xtick_6">
     <g id="line2d_11">
      <g>
       <use xlink:href="#mb4961a577d" x="180.6208" y="101.00736" style="stroke: #000000; stroke-width: 0.6576"/>
      </g>
     </g>
     <g id="line2d_12">
      <g>
       <use xlink:href="#mece05097d4" x="180.6208" y="6.31296" style="stroke: #000000; stroke-width: 0.6576"/>
      </g>
     </g>
     <g id="text_6">
      <!-- $\mathdefault{1.25}$ -->
      <g transform="translate(172.92688 110.155733) scale(0.078912 -0.078912)">
       <use xlink:href="#ArialMT-31" transform="translate(0 0.125)"/>
       <use xlink:href="#ArialMT-2e" transform="translate(55.615234 0.125)"/>
       <use xlink:href="#ArialMT-32" transform="translate(83.398438 0.125)"/>
       <use xlink:href="#ArialMT-35" transform="translate(139.013672 0.125)"/>
      </g>
     </g>
    </g>
    <g id="xtick_7">
     <g id="line2d_13">
      <defs>
       <path id="m7a929e85fd" d="M 0 0 
L 0 -1.3152 
" style="stroke: #000000; stroke-width: 0.6576"/>
      </defs>
      <g>
       <use xlink:href="#m7a929e85fd" x="45.94432" y="101.00736" style="stroke: #000000; stroke-width: 0.6576"/>
      </g>
     </g>
     <g id="line2d_14">
      <defs>
       <path id="m0a1ecb902a" d="M 0 0 
L 0 1.3152 
" style="stroke: #000000; stroke-width: 0.6576"/>
      </defs>
      <g>
       <use xlink:href="#m0a1ecb902a" x="45.94432" y="6.31296" style="stroke: #000000; stroke-width: 0.6576"/>
      </g>
     </g>
    </g>
    <g id="xtick_8">
     <g id="line2d_15">
      <g>
       <use xlink:href="#m7a929e85fd" x="51.55584" y="101.00736" style="stroke: #000000; stroke-width: 0.6576"/>
      </g>
     </g>
     <g id="line2d_16">
      <g>
       <use xlink:href="#m0a1ecb902a" x="51.55584" y="6.31296" style="stroke: #000000; stroke-width: 0.6576"/>
      </g>
     </g>
    </g>
    <g id="xtick_9">
     <g id="line2d_17">
      <g>
       <use xlink:href="#m7a929e85fd" x="57.16736" y="101.00736" style="stroke: #000000; stroke-width: 0.6576"/>
      </g>
     </g>
     <g id="line2d_18">
      <g>
       <use xlink:href="#m0a1ecb902a" x="57.16736" y="6.31296" style="stroke: #000000; stroke-width: 0.6576"/>
      </g>
     </g>
    </g>
    <g id="xtick_10">
     <g id="line2d_19">
      <g>
       <use xlink:href="#m7a929e85fd" x="62.77888" y="101.00736" style="stroke: #000000; stroke-width: 0.6576"/>
      </g>
     </g>
     <g id="line2d_20">
      <g>
       <use xlink:href="#m0a1ecb902a" x="62.77888" y="6.31296" style="stroke: #000000; stroke-width: 0.6576"/>
      </g>
     </g>
    </g>
    <g id="xtick_11">
     <g id="line2d_21">
      <g>
       <use xlink:href="#m7a929e85fd" x="74.00192" y="101.00736" style="stroke: #000000; stroke-width: 0.6576"/>
      </g>
     </g>
     <g id="line2d_22">
      <g>
       <use xlink:href="#m0a1ecb902a" x="74.00192" y="6.31296" style="stroke: #000000; stroke-width: 0.6576"/>
      </g>
     </g>
    </g>
    <g id="xtick_12">
     <g id="line2d_23">
      <g>
       <use xlink:href="#m7a929e85fd" x="79.61344" y="101.00736" style="stroke: #000000; stroke-width: 0.6576"/>
      </g>
     </g>
     <g id="line2d_24">
      <g>
       <use xlink:href="#m0a1ecb902a" x="79.61344" y="6.31296" style="stroke: #000000; stroke-width: 0.6576"/>
      </g>
     </g>
    </g>
    <g id="xtick_13">
     <g id="line2d_25">
      <g>
       <use xlink:href="#m7a929e85fd" x="85.22496" y="101.00736" style="stroke: #000000; stroke-width: 0.6576"/>
      </g>
     </g>
     <g id="line2d_26">
      <g>
       <use xlink:href="#m0a1ecb902a" x="85.22496" y="6.31296" style="stroke: #000000; stroke-width: 0.6576"/>
      </g>
     </g>
    </g>
    <g id="xtick_14">
     <g id="line2d_27">
      <g>
       <use xlink:href="#m7a929e85fd" x="90.83648" y="101.00736" style="stroke: #000000; stroke-width: 0.6576"/>
      </g>
     </g>
     <g id="line2d_28">
      <g>
       <use xlink:href="#m0a1ecb902a" x="90.83648" y="6.31296" style="stroke: #000000; stroke-width: 0.6576"/>
      </g>
     </g>
    </g>
    <g id="xtick_15">
     <g id="line2d_29">
      <g>
       <use xlink:href="#m7a929e85fd" x="102.05952" y="101.00736" style="stroke: #000000; stroke-width: 0.6576"/>
      </g>
     </g>
     <g id="line2d_30">
      <g>
       <use xlink:href="#m0a1ecb902a" x="102.05952" y="6.31296" style="stroke: #000000; stroke-width: 0.6576"/>
      </g>
     </g>
    </g>
    <g id="xtick_16">
     <g id="line2d_31">
      <g>
       <use xlink:href="#m7a929e85fd" x="107.67104" y="101.00736" style="stroke: #000000; stroke-width: 0.6576"/>
      </g>
     </g>
     <g id="line2d_32">
      <g>
       <use xlink:href="#m0a1ecb902a" x="107.67104" y="6.31296" style="stroke: #000000; stroke-width: 0.6576"/>
      </g>
     </g>
    </g>
    <g id="xtick_17">
     <g id="line2d_33">
      <g>
       <use xlink:href="#m7a929e85fd" x="113.28256" y="101.00736" style="stroke: #000000; stroke-width: 0.6576"/>
      </g>
     </g>
     <g id="line2d_34">
      <g>
       <use xlink:href="#m0a1ecb902a" x="113.28256" y="6.31296" style="stroke: #000000; stroke-width: 0.6576"/>
      </g>
     </g>
    </g>
    <g id="xtick_18">
     <g id="line2d_35">
      <g>
       <use xlink:href="#m7a929e85fd" x="118.89408" y="101.00736" style="stroke: #000000; stroke-width: 0.6576"/>
      </g>
     </g>
     <g id="line2d_36">
      <g>
       <use xlink:href="#m0a1ecb902a" x="118.89408" y="6.31296" style="stroke: #000000; stroke-width: 0.6576"/>
      </g>
     </g>
    </g>
    <g id="xtick_19">
     <g id="line2d_37">
      <g>
       <use xlink:href="#m7a929e85fd" x="130.11712" y="101.00736" style="stroke: #000000; stroke-width: 0.6576"/>
      </g>
     </g>
     <g id="line2d_38">
      <g>
       <use xlink:href="#m0a1ecb902a" x="130.11712" y="6.31296" style="stroke: #000000; stroke-width: 0.6576"/>
      </g>
     </g>
    </g>
    <g id="xtick_20">
     <g id="line2d_39">
      <g>
       <use xlink:href="#m7a929e85fd" x="135.72864" y="101.00736" style="stroke: #000000; stroke-width: 0.6576"/>
      </g>
     </g>
     <g id="line2d_40">
      <g>
       <use xlink:href="#m0a1ecb902a" x="135.72864" y="6.31296" style="stroke: #000000; stroke-width: 0.6576"/>
      </g>
     </g>
    </g>
    <g id="xtick_21">
     <g id="line2d_41">
      <g>
       <use xlink:href="#m7a929e85fd" x="141.34016" y="101.00736" style="stroke: #000000; stroke-width: 0.6576"/>
      </g>
     </g>
     <g id="line2d_42">
      <g>
       <use xlink:href="#m0a1ecb902a" x="141.34016" y="6.31296" style="stroke: #000000; stroke-width: 0.6576"/>
      </g>
     </g>
    </g>
    <g id="xtick_22">
     <g id="line2d_43">
      <g>
       <use xlink:href="#m7a929e85fd" x="146.95168" y="101.00736" style="stroke: #000000; stroke-width: 0.6576"/>
      </g>
     </g>
     <g id="line2d_44">
      <g>
       <use xlink:href="#m0a1ecb902a" x="146.95168" y="6.31296" style="stroke: #000000; stroke-width: 0.6576"/>
      </g>
     </g>
    </g>
    <g id="xtick_23">
     <g id="line2d_45">
      <g>
       <use xlink:href="#m7a929e85fd" x="158.17472" y="101.00736" style="stroke: #000000; stroke-width: 0.6576"/>
      </g>
     </g>
     <g id="line2d_46">
      <g>
       <use xlink:href="#m0a1ecb902a" x="158.17472" y="6.31296" style="stroke: #000000; stroke-width: 0.6576"/>
      </g>
     </g>
    </g>
    <g id="xtick_24">
     <g id="line2d_47">
      <g>
       <use xlink:href="#m7a929e85fd" x="163.78624" y="101.00736" style="stroke: #000000; stroke-width: 0.6576"/>
      </g>
     </g>
     <g id="line2d_48">
      <g>
       <use xlink:href="#m0a1ecb902a" x="163.78624" y="6.31296" style="stroke: #000000; stroke-width: 0.6576"/>
      </g>
     </g>
    </g>
    <g id="xtick_25">
     <g id="line2d_49">
      <g>
       <use xlink:href="#m7a929e85fd" x="169.39776" y="101.00736" style="stroke: #000000; stroke-width: 0.6576"/>
      </g>
     </g>
     <g id="line2d_50">
      <g>
       <use xlink:href="#m0a1ecb902a" x="169.39776" y="6.31296" style="stroke: #000000; stroke-width: 0.6576"/>
      </g>
     </g>
    </g>
    <g id="xtick_26">
     <g id="line2d_51">
      <g>
       <use xlink:href="#m7a929e85fd" x="175.00928" y="101.00736" style="stroke: #000000; stroke-width: 0.6576"/>
      </g>
     </g>
     <g id="line2d_52">
      <g>
       <use xlink:href="#m0a1ecb902a" x="175.00928" y="6.31296" style="stroke: #000000; stroke-width: 0.6576"/>
      </g>
     </g>
    </g>
    <g id="text_7">
     <!-- $E$ / V vs. RHE -->
     <g transform="translate(86.487552 121.372482) scale(0.078912 -0.078912)">
      <defs>
       <path id="DejaVuSans-Oblique-45" d="M 1081 4666 
L 4031 4666 
L 3928 4134 
L 1606 4134 
L 1338 2753 
L 3566 2753 
L 3463 2222 
L 1234 2222 
L 909 531 
L 3284 531 
L 3181 0 
L 172 0 
L 1081 4666 
z
" transform="scale(0.015625)"/>
       <path id="ArialMT-20" transform="scale(0.015625)"/>
       <path id="ArialMT-2f" d="M 0 -78 
L 1328 4659 
L 1778 4659 
L 453 -78 
L 0 -78 
z
" transform="scale(0.015625)"/>
       <path id="ArialMT-56" d="M 1803 0 
L 28 4581 
L 684 4581 
L 1875 1253 
Q 2019 853 2116 503 
Q 2222 878 2363 1253 
L 3600 4581 
L 4219 4581 
L 2425 0 
L 1803 0 
z
" transform="scale(0.015625)"/>
       <path id="ArialMT-76" d="M 1344 0 
L 81 3319 
L 675 3319 
L 1388 1331 
Q 1503 1009 1600 663 
Q 1675 925 1809 1294 
L 2547 3319 
L 3125 3319 
L 1869 0 
L 1344 0 
z
" transform="scale(0.015625)"/>
       <path id="ArialMT-73" d="M 197 991 
L 753 1078 
Q 800 744 1014 566 
Q 1228 388 1613 388 
Q 2000 388 2187 545 
Q 2375 703 2375 916 
Q 2375 1106 2209 1216 
Q 2094 1291 1634 1406 
Q 1016 1563 777 1677 
Q 538 1791 414 1992 
Q 291 2194 291 2438 
Q 291 2659 392 2848 
Q 494 3038 669 3163 
Q 800 3259 1026 3326 
Q 1253 3394 1513 3394 
Q 1903 3394 2198 3281 
Q 2494 3169 2634 2976 
Q 2775 2784 2828 2463 
L 2278 2388 
Q 2241 2644 2061 2787 
Q 1881 2931 1553 2931 
Q 1166 2931 1000 2803 
Q 834 2675 834 2503 
Q 834 2394 903 2306 
Q 972 2216 1119 2156 
Q 1203 2125 1616 2013 
Q 2213 1853 2448 1751 
Q 2684 1650 2818 1456 
Q 2953 1263 2953 975 
Q 2953 694 2789 445 
Q 2625 197 2315 61 
Q 2006 -75 1616 -75 
Q 969 -75 630 194 
Q 291 463 197 991 
z
" transform="scale(0.015625)"/>
       <path id="ArialMT-52" d="M 503 0 
L 503 4581 
L 2534 4581 
Q 3147 4581 3465 4457 
Q 3784 4334 3975 4021 
Q 4166 3709 4166 3331 
Q 4166 2844 3850 2509 
Q 3534 2175 2875 2084 
Q 3116 1969 3241 1856 
Q 3506 1613 3744 1247 
L 4541 0 
L 3778 0 
L 3172 953 
Q 2906 1366 2734 1584 
Q 2563 1803 2427 1890 
Q 2291 1978 2150 2013 
Q 2047 2034 1813 2034 
L 1109 2034 
L 1109 0 
L 503 0 
z
M 1109 2559 
L 2413 2559 
Q 2828 2559 3062 2645 
Q 3297 2731 3419 2920 
Q 3541 3109 3541 3331 
Q 3541 3656 3305 3865 
Q 3069 4075 2559 4075 
L 1109 4075 
L 1109 2559 
z
" transform="scale(0.015625)"/>
       <path id="ArialMT-48" d="M 513 0 
L 513 4581 
L 1119 4581 
L 1119 2700 
L 3500 2700 
L 3500 4581 
L 4106 4581 
L 4106 0 
L 3500 0 
L 3500 2159 
L 1119 2159 
L 1119 0 
L 513 0 
z
" transform="scale(0.015625)"/>
       <path id="ArialMT-45" d="M 506 0 
L 506 4581 
L 3819 4581 
L 3819 4041 
L 1113 4041 
L 1113 2638 
L 3647 2638 
L 3647 2100 
L 1113 2100 
L 1113 541 
L 3925 541 
L 3925 0 
L 506 0 
z
" transform="scale(0.015625)"/>
      </defs>
      <use xlink:href="#DejaVuSans-Oblique-45" transform="translate(0 0.09375)"/>
      <use xlink:href="#ArialMT-20" transform="translate(63.183594 0.09375)"/>
      <use xlink:href="#ArialMT-2f" transform="translate(90.966797 0.09375)"/>
      <use xlink:href="#ArialMT-20" transform="translate(118.75 0.09375)"/>
      <use xlink:href="#ArialMT-56" transform="translate(146.533203 0.09375)"/>
      <use xlink:href="#ArialMT-20" transform="translate(213.232422 0.09375)"/>
      <use xlink:href="#ArialMT-76" transform="translate(241.015625 0.09375)"/>
      <use xlink:href="#ArialMT-73" transform="translate(291.015625 0.09375)"/>
      <use xlink:href="#ArialMT-2e" transform="translate(341.015625 0.09375)"/>
      <use xlink:href="#ArialMT-20" transform="translate(368.798828 0.09375)"/>
      <use xlink:href="#ArialMT-52" transform="translate(396.582031 0.09375)"/>
      <use xlink:href="#ArialMT-48" transform="translate(468.798828 0.09375)"/>
      <use xlink:href="#ArialMT-45" transform="translate(541.015625 0.09375)"/>
     </g>
    </g>
   </g>
   <g id="matplotlib.axis_2">
    <g id="ytick_1">
     <g id="line2d_53">
      <defs>
       <path id="mbad7d20d1e" d="M 0 0 
L 2.54272 0 
" style="stroke: #000000; stroke-width: 0.6576"/>
      </defs>
      <g>
       <use xlink:href="#mbad7d20d1e" x="34.72128" y="91.329042" style="stroke: #000000; stroke-width: 0.6576"/>
      </g>
     </g>
     <g id="line2d_54">
      <defs>
       <path id="m3a74dde349" d="M 0 0 
L -2.54272 0 
" style="stroke: #000000; stroke-width: 0.6576"/>
      </defs>
      <g>
       <use xlink:href="#m3a74dde349" x="186.23232" y="91.329042" style="stroke: #000000; stroke-width: 0.6576"/>
      </g>
     </g>
     <g id="text_8">
      <!-- $\mathdefault{−0.4}$ -->
      <g transform="translate(15.596704 94.153228) scale(0.078912 -0.078912)">
       <defs>
        <path id="ArialMT-2212" d="M 3381 1997 
L 356 1997 
L 356 2522 
L 3381 2522 
L 3381 1997 
z
" transform="scale(0.015625)"/>
        <path id="ArialMT-34" d="M 2069 0 
L 2069 1097 
L 81 1097 
L 81 1613 
L 2172 4581 
L 2631 4581 
L 2631 1613 
L 3250 1613 
L 3250 1097 
L 2631 1097 
L 2631 0 
L 2069 0 
z
M 2069 1613 
L 2069 3678 
L 634 1613 
L 2069 1613 
z
" transform="scale(0.015625)"/>
       </defs>
       <use xlink:href="#ArialMT-2212" transform="translate(0 0.125)"/>
       <use xlink:href="#ArialMT-30" transform="translate(58.398438 0.125)"/>
       <use xlink:href="#ArialMT-2e" transform="translate(114.013672 0.125)"/>
       <use xlink:href="#ArialMT-34" transform="translate(141.796875 0.125)"/>
      </g>
     </g>
    </g>
    <g id="ytick_2">
     <g id="line2d_55">
      <g>
       <use xlink:href="#mbad7d20d1e" x="34.72128" y="68.380455" style="stroke: #000000; stroke-width: 0.6576"/>
      </g>
     </g>
     <g id="line2d_56">
      <g>
       <use xlink:href="#m3a74dde349" x="186.23232" y="68.380455" style="stroke: #000000; stroke-width: 0.6576"/>
      </g>
     </g>
     <g id="text_9">
      <!-- $\mathdefault{−0.2}$ -->
      <g transform="translate(15.596704 71.204642) scale(0.078912 -0.078912)">
       <use xlink:href="#ArialMT-2212" transform="translate(0 0.125)"/>
       <use xlink:href="#ArialMT-30" transform="translate(58.398438 0.125)"/>
       <use xlink:href="#ArialMT-2e" transform="translate(114.013672 0.125)"/>
       <use xlink:href="#ArialMT-32" transform="translate(141.796875 0.125)"/>
      </g>
     </g>
    </g>
    <g id="ytick_3">
     <g id="line2d_57">
      <g>
       <use xlink:href="#mbad7d20d1e" x="34.72128" y="45.431868" style="stroke: #000000; stroke-width: 0.6576"/>
      </g>
     </g>
     <g id="line2d_58">
      <g>
       <use xlink:href="#m3a74dde349" x="186.23232" y="45.431868" style="stroke: #000000; stroke-width: 0.6576"/>
      </g>
     </g>
     <g id="text_10">
      <!-- $\mathdefault{0.0}$ -->
      <g transform="translate(20.1736 48.256055) scale(0.078912 -0.078912)">
       <use xlink:href="#ArialMT-30" transform="translate(0 0.125)"/>
       <use xlink:href="#ArialMT-2e" transform="translate(55.615234 0.125)"/>
       <use xlink:href="#ArialMT-30" transform="translate(83.398438 0.125)"/>
      </g>
     </g>
    </g>
    <g id="ytick_4">
     <g id="line2d_59">
      <g>
       <use xlink:href="#mbad7d20d1e" x="34.72128" y="22.483282" style="stroke: #000000; stroke-width: 0.6576"/>
      </g>
     </g>
     <g id="line2d_60">
      <g>
       <use xlink:href="#m3a74dde349" x="186.23232" y="22.483282" style="stroke: #000000; stroke-width: 0.6576"/>
      </g>
     </g>
     <g id="text_11">
      <!-- $\mathdefault{0.2}$ -->
      <g transform="translate(20.1736 25.307468) scale(0.078912 -0.078912)">
       <use xlink:href="#ArialMT-30" transform="translate(0 0.125)"/>
       <use xlink:href="#ArialMT-2e" transform="translate(55.615234 0.125)"/>
       <use xlink:href="#ArialMT-32" transform="translate(83.398438 0.125)"/>
      </g>
     </g>
    </g>
    <g id="ytick_5">
     <g id="line2d_61">
      <defs>
       <path id="m30b8d726c7" d="M 0 0 
L 1.3152 0 
" style="stroke: #000000; stroke-width: 0.6576"/>
      </defs>
      <g>
       <use xlink:href="#m30b8d726c7" x="34.72128" y="97.066188" style="stroke: #000000; stroke-width: 0.6576"/>
      </g>
     </g>
     <g id="line2d_62">
      <defs>
       <path id="mbcfb855264" d="M 0 0 
L -1.3152 0 
" style="stroke: #000000; stroke-width: 0.6576"/>
      </defs>
      <g>
       <use xlink:href="#mbcfb855264" x="186.23232" y="97.066188" style="stroke: #000000; stroke-width: 0.6576"/>
      </g>
     </g>
    </g>
    <g id="ytick_6">
     <g id="line2d_63">
      <g>
       <use xlink:href="#m30b8d726c7" x="34.72128" y="85.591895" style="stroke: #000000; stroke-width: 0.6576"/>
      </g>
     </g>
     <g id="line2d_64">
      <g>
       <use xlink:href="#mbcfb855264" x="186.23232" y="85.591895" style="stroke: #000000; stroke-width: 0.6576"/>
      </g>
     </g>
    </g>
    <g id="ytick_7">
     <g id="line2d_65">
      <g>
       <use xlink:href="#m30b8d726c7" x="34.72128" y="79.854748" style="stroke: #000000; stroke-width: 0.6576"/>
      </g>
     </g>
     <g id="line2d_66">
      <g>
       <use xlink:href="#mbcfb855264" x="186.23232" y="79.854748" style="stroke: #000000; stroke-width: 0.6576"/>
      </g>
     </g>
    </g>
    <g id="ytick_8">
     <g id="line2d_67">
      <g>
       <use xlink:href="#m30b8d726c7" x="34.72128" y="74.117602" style="stroke: #000000; stroke-width: 0.6576"/>
      </g>
     </g>
     <g id="line2d_68">
      <g>
       <use xlink:href="#mbcfb855264" x="186.23232" y="74.117602" style="stroke: #000000; stroke-width: 0.6576"/>
      </g>
     </g>
    </g>
    <g id="ytick_9">
     <g id="line2d_69">
      <g>
       <use xlink:href="#m30b8d726c7" x="34.72128" y="62.643308" style="stroke: #000000; stroke-width: 0.6576"/>
      </g>
     </g>
     <g id="line2d_70">
      <g>
       <use xlink:href="#mbcfb855264" x="186.23232" y="62.643308" style="stroke: #000000; stroke-width: 0.6576"/>
      </g>
     </g>
    </g>
    <g id="ytick_10">
     <g id="line2d_71">
      <g>
       <use xlink:href="#m30b8d726c7" x="34.72128" y="56.906162" style="stroke: #000000; stroke-width: 0.6576"/>
      </g>
     </g>
     <g id="line2d_72">
      <g>
       <use xlink:href="#mbcfb855264" x="186.23232" y="56.906162" style="stroke: #000000; stroke-width: 0.6576"/>
      </g>
     </g>
    </g>
    <g id="ytick_11">
     <g id="line2d_73">
      <g>
       <use xlink:href="#m30b8d726c7" x="34.72128" y="51.169015" style="stroke: #000000; stroke-width: 0.6576"/>
      </g>
     </g>
     <g id="line2d_74">
      <g>
       <use xlink:href="#mbcfb855264" x="186.23232" y="51.169015" style="stroke: #000000; stroke-width: 0.6576"/>
      </g>
     </g>
    </g>
    <g id="ytick_12">
     <g id="line2d_75">
      <g>
       <use xlink:href="#m30b8d726c7" x="34.72128" y="39.694722" style="stroke: #000000; stroke-width: 0.6576"/>
      </g>
     </g>
     <g id="line2d_76">
      <g>
       <use xlink:href="#mbcfb855264" x="186.23232" y="39.694722" style="stroke: #000000; stroke-width: 0.6576"/>
      </g>
     </g>
    </g>
    <g id="ytick_13">
     <g id="line2d_77">
      <g>
       <use xlink:href="#m30b8d726c7" x="34.72128" y="33.957575" style="stroke: #000000; stroke-width: 0.6576"/>
      </g>
     </g>
     <g id="line2d_78">
      <g>
       <use xlink:href="#mbcfb855264" x="186.23232" y="33.957575" style="stroke: #000000; stroke-width: 0.6576"/>
      </g>
     </g>
    </g>
    <g id="ytick_14">
     <g id="line2d_79">
      <g>
       <use xlink:href="#m30b8d726c7" x="34.72128" y="28.220428" style="stroke: #000000; stroke-width: 0.6576"/>
      </g>
     </g>
     <g id="line2d_80">
      <g>
       <use xlink:href="#mbcfb855264" x="186.23232" y="28.220428" style="stroke: #000000; stroke-width: 0.6576"/>
      </g>
     </g>
    </g>
    <g id="ytick_15">
     <g id="line2d_81">
      <g>
       <use xlink:href="#m30b8d726c7" x="34.72128" y="16.746135" style="stroke: #000000; stroke-width: 0.6576"/>
      </g>
     </g>
     <g id="line2d_82">
      <g>
       <use xlink:href="#mbcfb855264" x="186.23232" y="16.746135" style="stroke: #000000; stroke-width: 0.6576"/>
      </g>
     </g>
    </g>
    <g id="ytick_16">
     <g id="line2d_83">
      <g>
       <use xlink:href="#m30b8d726c7" x="34.72128" y="11.008988" style="stroke: #000000; stroke-width: 0.6576"/>
      </g>
     </g>
     <g id="line2d_84">
      <g>
       <use xlink:href="#mbcfb855264" x="186.23232" y="11.008988" style="stroke: #000000; stroke-width: 0.6576"/>
      </g>
     </g>
    </g>
    <g id="text_12">
     <!-- $j_\mathrm{geo}$ / mA cm$_{(\mathrm{cell})}^{-2}$ -->
     <g transform="translate(8.67696 82.66032) rotate(-90) scale(0.078912 -0.078912)">
      <defs>
       <path id="DejaVuSans-Oblique-6a" d="M 928 3500 
L 1503 3500 
L 813 -63 
L 809 -78 
Q 694 -675 544 -897 
Q 403 -1106 132 -1218 
Q -138 -1331 -506 -1331 
L -722 -1331 
L -628 -844 
L -481 -844 
Q -144 -844 -1 -703 
Q 141 -563 238 -63 
L 928 3500 
z
M 1197 4863 
L 1772 4863 
L 1631 4134 
L 1056 4134 
L 1197 4863 
z
" transform="scale(0.015625)"/>
       <path id="DejaVuSans-67" d="M 2906 1791 
Q 2906 2416 2648 2759 
Q 2391 3103 1925 3103 
Q 1463 3103 1205 2759 
Q 947 2416 947 1791 
Q 947 1169 1205 825 
Q 1463 481 1925 481 
Q 2391 481 2648 825 
Q 2906 1169 2906 1791 
z
M 3481 434 
Q 3481 -459 3084 -895 
Q 2688 -1331 1869 -1331 
Q 1566 -1331 1297 -1286 
Q 1028 -1241 775 -1147 
L 775 -588 
Q 1028 -725 1275 -790 
Q 1522 -856 1778 -856 
Q 2344 -856 2625 -561 
Q 2906 -266 2906 331 
L 2906 616 
Q 2728 306 2450 153 
Q 2172 0 1784 0 
Q 1141 0 747 490 
Q 353 981 353 1791 
Q 353 2603 747 3093 
Q 1141 3584 1784 3584 
Q 2172 3584 2450 3431 
Q 2728 3278 2906 2969 
L 2906 3500 
L 3481 3500 
L 3481 434 
z
" transform="scale(0.015625)"/>
       <path id="DejaVuSans-65" d="M 3597 1894 
L 3597 1613 
L 953 1613 
Q 991 1019 1311 708 
Q 1631 397 2203 397 
Q 2534 397 2845 478 
Q 3156 559 3463 722 
L 3463 178 
Q 3153 47 2828 -22 
Q 2503 -91 2169 -91 
Q 1331 -91 842 396 
Q 353 884 353 1716 
Q 353 2575 817 3079 
Q 1281 3584 2069 3584 
Q 2775 3584 3186 3129 
Q 3597 2675 3597 1894 
z
M 3022 2063 
Q 3016 2534 2758 2815 
Q 2500 3097 2075 3097 
Q 1594 3097 1305 2825 
Q 1016 2553 972 2059 
L 3022 2063 
z
" transform="scale(0.015625)"/>
       <path id="DejaVuSans-6f" d="M 1959 3097 
Q 1497 3097 1228 2736 
Q 959 2375 959 1747 
Q 959 1119 1226 758 
Q 1494 397 1959 397 
Q 2419 397 2687 759 
Q 2956 1122 2956 1747 
Q 2956 2369 2687 2733 
Q 2419 3097 1959 3097 
z
M 1959 3584 
Q 2709 3584 3137 3096 
Q 3566 2609 3566 1747 
Q 3566 888 3137 398 
Q 2709 -91 1959 -91 
Q 1206 -91 779 398 
Q 353 888 353 1747 
Q 353 2609 779 3096 
Q 1206 3584 1959 3584 
z
" transform="scale(0.015625)"/>
       <path id="ArialMT-6d" d="M 422 0 
L 422 3319 
L 925 3319 
L 925 2853 
Q 1081 3097 1340 3245 
Q 1600 3394 1931 3394 
Q 2300 3394 2536 3241 
Q 2772 3088 2869 2813 
Q 3263 3394 3894 3394 
Q 4388 3394 4653 3120 
Q 4919 2847 4919 2278 
L 4919 0 
L 4359 0 
L 4359 2091 
Q 4359 2428 4304 2576 
Q 4250 2725 4106 2815 
Q 3963 2906 3769 2906 
Q 3419 2906 3187 2673 
Q 2956 2441 2956 1928 
L 2956 0 
L 2394 0 
L 2394 2156 
Q 2394 2531 2256 2718 
Q 2119 2906 1806 2906 
Q 1569 2906 1367 2781 
Q 1166 2656 1075 2415 
Q 984 2175 984 1722 
L 984 0 
L 422 0 
z
" transform="scale(0.015625)"/>
       <path id="ArialMT-41" d="M -9 0 
L 1750 4581 
L 2403 4581 
L 4278 0 
L 3588 0 
L 3053 1388 
L 1138 1388 
L 634 0 
L -9 0 
z
M 1313 1881 
L 2866 1881 
L 2388 3150 
Q 2169 3728 2063 4100 
Q 1975 3659 1816 3225 
L 1313 1881 
z
" transform="scale(0.015625)"/>
       <path id="ArialMT-63" d="M 2588 1216 
L 3141 1144 
Q 3050 572 2676 248 
Q 2303 -75 1759 -75 
Q 1078 -75 664 370 
Q 250 816 250 1647 
Q 250 2184 428 2587 
Q 606 2991 970 3192 
Q 1334 3394 1763 3394 
Q 2303 3394 2647 3120 
Q 2991 2847 3088 2344 
L 2541 2259 
Q 2463 2594 2264 2762 
Q 2066 2931 1784 2931 
Q 1359 2931 1093 2626 
Q 828 2322 828 1663 
Q 828 994 1084 691 
Q 1341 388 1753 388 
Q 2084 388 2306 591 
Q 2528 794 2588 1216 
z
" transform="scale(0.015625)"/>
       <path id="DejaVuSans-2212" d="M 678 2272 
L 4684 2272 
L 4684 1741 
L 678 1741 
L 678 2272 
z
" transform="scale(0.015625)"/>
       <path id="DejaVuSans-32" d="M 1228 531 
L 3431 531 
L 3431 0 
L 469 0 
L 469 531 
Q 828 903 1448 1529 
Q 2069 2156 2228 2338 
Q 2531 2678 2651 2914 
Q 2772 3150 2772 3378 
Q 2772 3750 2511 3984 
Q 2250 4219 1831 4219 
Q 1534 4219 1204 4116 
Q 875 4013 500 3803 
L 500 4441 
Q 881 4594 1212 4672 
Q 1544 4750 1819 4750 
Q 2544 4750 2975 4387 
Q 3406 4025 3406 3419 
Q 3406 3131 3298 2873 
Q 3191 2616 2906 2266 
Q 2828 2175 2409 1742 
Q 1991 1309 1228 531 
z
" transform="scale(0.015625)"/>
       <path id="DejaVuSans-28" d="M 1984 4856 
Q 1566 4138 1362 3434 
Q 1159 2731 1159 2009 
Q 1159 1288 1364 580 
Q 1569 -128 1984 -844 
L 1484 -844 
Q 1016 -109 783 600 
Q 550 1309 550 2009 
Q 550 2706 781 3412 
Q 1013 4119 1484 4856 
L 1984 4856 
z
" transform="scale(0.015625)"/>
       <path id="DejaVuSans-63" d="M 3122 3366 
L 3122 2828 
Q 2878 2963 2633 3030 
Q 2388 3097 2138 3097 
Q 1578 3097 1268 2742 
Q 959 2388 959 1747 
Q 959 1106 1268 751 
Q 1578 397 2138 397 
Q 2388 397 2633 464 
Q 2878 531 3122 666 
L 3122 134 
Q 2881 22 2623 -34 
Q 2366 -91 2075 -91 
Q 1284 -91 818 406 
Q 353 903 353 1747 
Q 353 2603 823 3093 
Q 1294 3584 2113 3584 
Q 2378 3584 2631 3529 
Q 2884 3475 3122 3366 
z
" transform="scale(0.015625)"/>
       <path id="DejaVuSans-6c" d="M 603 4863 
L 1178 4863 
L 1178 0 
L 603 0 
L 603 4863 
z
" transform="scale(0.015625)"/>
       <path id="DejaVuSans-29" d="M 513 4856 
L 1013 4856 
Q 1481 4119 1714 3412 
Q 1947 2706 1947 2009 
Q 1947 1309 1714 600 
Q 1481 -109 1013 -844 
L 513 -844 
Q 928 -128 1133 580 
Q 1338 1288 1338 2009 
Q 1338 2731 1133 3434 
Q 928 4138 513 4856 
z
" transform="scale(0.015625)"/>
      </defs>
      <use xlink:href="#DejaVuSans-Oblique-6a" transform="translate(0 0.701562)"/>
      <use xlink:href="#DejaVuSans-67" transform="translate(27.783203 -15.704688) scale(0.7)"/>
      <use xlink:href="#DejaVuSans-65" transform="translate(72.216797 -15.704688) scale(0.7)"/>
      <use xlink:href="#DejaVuSans-6f" transform="translate(115.283203 -15.704688) scale(0.7)"/>
      <use xlink:href="#ArialMT-20" transform="translate(160.844727 0.701562)"/>
      <use xlink:href="#ArialMT-2f" transform="translate(188.62793 0.701562)"/>
      <use xlink:href="#ArialMT-20" transform="translate(216.411133 0.701562)"/>
      <use xlink:href="#ArialMT-6d" transform="translate(244.194336 0.701562)"/>
      <use xlink:href="#ArialMT-41" transform="translate(327.495117 0.701562)"/>
      <use xlink:href="#ArialMT-20" transform="translate(394.194336 0.701562)"/>
      <use xlink:href="#ArialMT-63" transform="translate(421.977539 0.701562)"/>
      <use xlink:href="#ArialMT-6d" transform="translate(471.977539 0.701562)"/>
      <use xlink:href="#DejaVuSans-2212" transform="translate(556.235352 39.046875) scale(0.7)"/>
      <use xlink:href="#DejaVuSans-32" transform="translate(614.887695 39.046875) scale(0.7)"/>
      <use xlink:href="#DejaVuSans-28" transform="translate(556.235352 -26.642188) scale(0.7)"/>
      <use xlink:href="#DejaVuSans-63" transform="translate(583.544922 -26.642188) scale(0.7)"/>
      <use xlink:href="#DejaVuSans-65" transform="translate(622.03125 -26.642188) scale(0.7)"/>
      <use xlink:href="#DejaVuSans-6c" transform="translate(665.097656 -26.642188) scale(0.7)"/>
      <use xlink:href="#DejaVuSans-6c" transform="translate(684.545898 -26.642188) scale(0.7)"/>
      <use xlink:href="#DejaVuSans-29" transform="translate(703.994141 -26.642188) scale(0.7)"/>
     </g>
    </g>
   </g>
   <g id="line2d_85">
    <path d="M 149.413797 25.935145 
L 151.878725 24.461386 
L 153.001748 23.742958 
L 155.017883 22.540645 
L 155.914963 21.969798 
L 157.932984 20.704841 
L 158.604324 20.324298 
L 160.397173 19.252269 
L 173.174185 11.762612 
L 174.52068 10.895844 
L 174.969347 10.617251 
L 174.762145 16.418749 
L 174.101145 21.984756 
L 173.213732 26.790245 
L 172.323417 30.282047 
L 171.432417 33.028574 
L 170.317979 35.781299 
L 169.200119 38.031924 
L 167.857348 40.282328 
L 164.500187 44.556929 
L 163.156913 45.883432 
L 160.243253 48.397848 
L 159.12468 49.25618 
L 156.660018 51.01435 
L 141.419293 61.395839 
L 132.680997 67.719833 
L 131.110558 68.512731 
L 130.439089 68.726846 
L 129.091578 69.009645 
L 127.295468 68.915663 
L 125.947587 68.495877 
L 124.149102 67.600806 
L 114.033594 60.750933 
L 108.864541 58.028976 
L 102.125103 55.702489 
L 99.205987 55.067101 
L 96.734728 54.669735 
L 92.020461 54.23341 
L 85.734933 54.202958 
L 82.593079 54.537174 
L 81.248597 54.819309 
L 79.005115 55.560947 
L 75.64221 57.55325 
L 72.95389 59.689371 
L 72.506021 60.184988 
L 70.490189 62.639387 
L 69.596255 64.110142 
L 68.702252 65.601262 
L 68.478583 66.185612 
L 68.255721 66.409877 
L 67.807661 67.34378 
L 67.362912 68.199101 
L 66.914276 69.02027 
L 66.4663 69.782653 
L 65.796094 70.591584 
L 65.123058 71.44134 
L 64.451974 71.942269 
L 64.22744 72.330528 
L 63.778147 72.41983 
L 63.554976 72.76309 
L 63.33089 72.781147 
L 62.436047 73.348262 
L 62.211536 73.218863 
L 61.98684 73.795212 
L 61.762268 73.689973 
L 61.314741 73.870979 
L 61.090323 73.996994 
L 60.866461 74.384494 
L 60.641087 74.535871 
L 60.416274 74.422916 
L 60.192162 74.851209 
L 59.96948 74.895891 
L 59.522097 75.303598 
L 59.073675 75.802978 
L 57.95242 77.353674 
L 57.72939 77.446328 
L 57.507505 78.183444 
L 57.282426 78.314993 
L 55.941902 81.09523 
L 55.71888 81.244171 
L 55.272299 82.557447 
L 54.825366 83.494101 
L 54.154601 85.149214 
L 53.2629 86.984258 
L 53.039299 87.970559 
L 52.814217 88.100527 
L 52.146314 89.465347 
L 51.476335 90.803605 
L 51.253021 90.920924 
L 51.028623 91.63717 
L 50.804789 91.562541 
L 50.583599 91.834493 
L 50.357685 92.418558 
L 50.132551 92.682605 
L 49.907309 92.52639 
L 49.682743 92.793599 
L 49.459463 92.87392 
L 49.011556 93.193305 
L 48.788092 93.240106 
L 48.564054 93.54463 
L 48.340637 93.349203 
L 48.115995 93.897851 
L 47.892402 93.725193 
L 47.668529 94.107823 
L 47.44527 94.197947 
L 47.223174 94.466105 
L 46.997303 94.964789 
L 46.771959 95.182983 
L 46.102142 96.703069 
L 46.241014 62.321804 
L 46.672361 54.205108 
L 47.113489 50.165543 
L 47.776377 45.752715 
L 48.441998 42.521143 
L 50.668268 34.837815 
L 52.23048 30.963224 
L 53.5737 28.871722 
L 53.796033 28.767938 
L 54.020801 28.278361 
L 54.244987 28.360326 
L 54.468311 28.194972 
L 54.693504 27.799915 
L 54.916756 27.97077 
L 55.14025 27.621059 
L 55.589251 27.605912 
L 56.262328 27.356063 
L 57.38407 27.514523 
L 57.608784 27.422154 
L 57.834237 27.466678 
L 58.059408 27.325421 
L 58.283237 27.609105 
L 58.507375 27.35151 
L 58.95729 27.554905 
L 59.405343 27.516231 
L 59.854772 27.438123 
L 60.079835 27.298479 
L 60.304854 27.508799 
L 60.75184 27.178536 
L 60.977216 27.239756 
L 61.649137 26.868415 
L 61.873361 26.915374 
L 62.994726 26.103755 
L 63.218126 26.132437 
L 63.667295 25.667525 
L 63.89311 25.512892 
L 64.116311 25.553811 
L 64.563658 25.129313 
L 65.235053 24.774573 
L 65.68496 24.287558 
L 65.909745 24.334454 
L 66.132713 24.212897 
L 66.357185 23.953974 
L 66.581618 24.099436 
L 66.80565 23.791972 
L 68.375168 23.463385 
L 68.599984 23.630414 
L 68.824739 23.504747 
L 69.049698 23.792289 
L 69.498892 23.761963 
L 69.949312 24.150412 
L 70.173885 24.256473 
L 70.398097 24.561945 
L 70.622276 24.587749 
L 70.84974 24.89205 
L 71.073842 24.987329 
L 71.298293 25.352725 
L 71.747408 25.707939 
L 73.771276 27.51291 
L 74.221081 27.87565 
L 75.346515 28.609668 
L 76.020745 29.167581 
L 76.470849 29.406899 
L 78.268455 30.839138 
L 79.617494 31.91025 
L 80.74256 32.893705 
L 82.542444 34.500056 
L 84.342105 36.160229 
L 85.917369 37.691858 
L 88.167776 39.682674 
L 89.065934 40.306298 
L 90.189568 40.932736 
L 91.762043 41.573627 
L 93.558573 42.076611 
L 94.906277 42.307296 
L 97.375786 42.5674 
L 103.885302 42.692574 
L 108.151675 42.502915 
L 112.863267 42.155541 
L 113.536615 42.086351 
L 115.107834 41.87173 
L 117.350895 41.566322 
L 118.248007 41.433128 
L 119.369652 41.228785 
L 120.494213 40.970462 
L 120.939952 40.898774 
L 127.221743 39.274904 
L 127.669781 38.964878 
L 128.792414 38.591323 
L 129.240662 38.379833 
L 129.912001 38.15718 
L 130.362614 37.896992 
L 130.809085 37.746944 
L 131.258578 37.487387 
L 131.705924 37.274253 
L 133.725063 36.271161 
L 133.950275 35.937924 
L 134.397997 35.795466 
L 135.068313 35.355978 
L 135.518907 35.033494 
L 135.74196 34.952193 
L 135.96538 34.726188 
L 136.190653 34.686059 
L 136.414534 34.307223 
L 136.862765 34.140574 
L 137.758722 33.463856 
L 137.985241 33.640277 
L 138.202062 32.843868 
L 138.430137 32.959985 
L 139.550761 32.169174 
L 140.223604 31.598137 
L 141.119503 30.946749 
L 142.913799 29.605424 
L 143.136929 29.559761 
L 143.809626 29.025691 
L 145.153438 28.058143 
L 145.826628 27.650373 
L 146.274148 27.360459 
L 147.172414 26.767002 
L 147.619363 26.525186 
L 148.739218 25.794584 
L 149.18861 25.487942 
L 149.18861 25.487942 
" clip-path="url(#p0bd1e02aac)" style="fill: none; stroke: #1f77b4; stroke-width: 0.6576; stroke-linecap: square"/>
   </g>
   <g id="patch_3">
    <path d="M 34.72128 101.00736 
L 34.72128 6.31296 
" style="fill: none; stroke: #000000; stroke-width: 0.6576; stroke-linejoin: miter; stroke-linecap: square"/>
   </g>
   <g id="patch_4">
    <path d="M 186.23232 101.00736 
L 186.23232 6.31296 
" style="fill: none; stroke: #000000; stroke-width: 0.6576; stroke-linejoin: miter; stroke-linecap: square"/>
   </g>
   <g id="patch_5">
    <path d="M 34.72128 101.00736 
L 186.23232 101.00736 
" style="fill: none; stroke: #000000; stroke-width: 0.6576; stroke-linejoin: miter; stroke-linecap: square"/>
   </g>
   <g id="patch_6">
    <path d="M 34.72128 6.31296 
L 186.23232 6.31296 
" style="fill: none; stroke: #000000; stroke-width: 0.6576; stroke-linejoin: miter; stroke-linecap: square"/>
   </g>
   <g id="patch_7">
    <path d="M 81.521373 25.173695 
Q 75.245547 29.041304 68.96972 32.908914 
" style="fill: none; stroke: #000000; stroke-width: 0.8; stroke-linecap: round"/>
   </g>
   <g id="text_13">
    <!-- ECSA H$_\mathrm{upd}$ -->
    <g transform="translate(85.22496 25.403282) scale(0.08 -0.08)">
     <defs>
      <path id="ArialMT-43" d="M 3763 1606 
L 4369 1453 
Q 4178 706 3683 314 
Q 3188 -78 2472 -78 
Q 1731 -78 1267 223 
Q 803 525 561 1097 
Q 319 1669 319 2325 
Q 319 3041 592 3573 
Q 866 4106 1370 4382 
Q 1875 4659 2481 4659 
Q 3169 4659 3637 4309 
Q 4106 3959 4291 3325 
L 3694 3184 
Q 3534 3684 3231 3912 
Q 2928 4141 2469 4141 
Q 1941 4141 1586 3887 
Q 1231 3634 1087 3207 
Q 944 2781 944 2328 
Q 944 1744 1114 1308 
Q 1284 872 1643 656 
Q 2003 441 2422 441 
Q 2931 441 3284 734 
Q 3638 1028 3763 1606 
z
" transform="scale(0.015625)"/>
      <path id="ArialMT-53" d="M 288 1472 
L 859 1522 
Q 900 1178 1048 958 
Q 1197 738 1509 602 
Q 1822 466 2213 466 
Q 2559 466 2825 569 
Q 3091 672 3220 851 
Q 3350 1031 3350 1244 
Q 3350 1459 3225 1620 
Q 3100 1781 2813 1891 
Q 2628 1963 1997 2114 
Q 1366 2266 1113 2400 
Q 784 2572 623 2826 
Q 463 3081 463 3397 
Q 463 3744 659 4045 
Q 856 4347 1234 4503 
Q 1613 4659 2075 4659 
Q 2584 4659 2973 4495 
Q 3363 4331 3572 4012 
Q 3781 3694 3797 3291 
L 3216 3247 
Q 3169 3681 2898 3903 
Q 2628 4125 2100 4125 
Q 1550 4125 1298 3923 
Q 1047 3722 1047 3438 
Q 1047 3191 1225 3031 
Q 1400 2872 2139 2705 
Q 2878 2538 3153 2413 
Q 3553 2228 3743 1945 
Q 3934 1663 3934 1294 
Q 3934 928 3725 604 
Q 3516 281 3123 101 
Q 2731 -78 2241 -78 
Q 1619 -78 1198 103 
Q 778 284 539 648 
Q 300 1013 288 1472 
z
" transform="scale(0.015625)"/>
      <path id="DejaVuSans-75" d="M 544 1381 
L 544 3500 
L 1119 3500 
L 1119 1403 
Q 1119 906 1312 657 
Q 1506 409 1894 409 
Q 2359 409 2629 706 
Q 2900 1003 2900 1516 
L 2900 3500 
L 3475 3500 
L 3475 0 
L 2900 0 
L 2900 538 
Q 2691 219 2414 64 
Q 2138 -91 1772 -91 
Q 1169 -91 856 284 
Q 544 659 544 1381 
z
M 1991 3584 
L 1991 3584 
z
" transform="scale(0.015625)"/>
      <path id="DejaVuSans-70" d="M 1159 525 
L 1159 -1331 
L 581 -1331 
L 581 3500 
L 1159 3500 
L 1159 2969 
Q 1341 3281 1617 3432 
Q 1894 3584 2278 3584 
Q 2916 3584 3314 3078 
Q 3713 2572 3713 1747 
Q 3713 922 3314 415 
Q 2916 -91 2278 -91 
Q 1894 -91 1617 61 
Q 1341 213 1159 525 
z
M 3116 1747 
Q 3116 2381 2855 2742 
Q 2594 3103 2138 3103 
Q 1681 3103 1420 2742 
Q 1159 2381 1159 1747 
Q 1159 1113 1420 752 
Q 1681 391 2138 391 
Q 2594 391 2855 752 
Q 3116 1113 3116 1747 
z
" transform="scale(0.015625)"/>
      <path id="DejaVuSans-64" d="M 2906 2969 
L 2906 4863 
L 3481 4863 
L 3481 0 
L 2906 0 
L 2906 525 
Q 2725 213 2448 61 
Q 2172 -91 1784 -91 
Q 1150 -91 751 415 
Q 353 922 353 1747 
Q 353 2572 751 3078 
Q 1150 3584 1784 3584 
Q 2172 3584 2448 3432 
Q 2725 3281 2906 2969 
z
M 947 1747 
Q 947 1113 1208 752 
Q 1469 391 1925 391 
Q 2381 391 2643 752 
Q 2906 1113 2906 1747 
Q 2906 2381 2643 2742 
Q 2381 3103 1925 3103 
Q 1469 3103 1208 2742 
Q 947 2381 947 1747 
z
" transform="scale(0.015625)"/>
     </defs>
     <use xlink:href="#ArialMT-45" transform="translate(0 0.203125)"/>
     <use xlink:href="#ArialMT-43" transform="translate(66.699219 0.203125)"/>
     <use xlink:href="#ArialMT-53" transform="translate(138.916016 0.203125)"/>
     <use xlink:href="#ArialMT-41" transform="translate(205.615234 0.203125)"/>
     <use xlink:href="#ArialMT-20" transform="translate(272.314453 0.203125)"/>
     <use xlink:href="#ArialMT-48" transform="translate(300.097656 0.203125)"/>
     <use xlink:href="#DejaVuSans-75" transform="translate(373.271484 -16.203125) scale(0.7)"/>
     <use xlink:href="#DejaVuSans-70" transform="translate(417.636719 -16.203125) scale(0.7)"/>
     <use xlink:href="#DejaVuSans-64" transform="translate(462.070312 -16.203125) scale(0.7)"/>
    </g>
   </g>
  </g>
 </g>
 <defs>
  <clipPath id="p0bd1e02aac">
   <rect x="34.72128" y="6.31296" width="151.51104" height="94.6944"/>
  </clipPath>
 </defs>
</svg>
