<?xml version="1.0" encoding="utf-8" standalone="no"?>
<!DOCTYPE svg PUBLIC "-//W3C//DTD SVG 1.1//EN"
  "http://www.w3.org/Graphics/SVG/1.1/DTD/svg11.dtd">
<svg xmlns:xlink="http://www.w3.org/1999/xlink" width="192.54528pt" height="126.2592pt" viewBox="0 0 192.54528 126.2592" xmlns="http://www.w3.org/2000/svg" version="1.1">
 <metadata>
  <rdf:RDF xmlns:dc="http://purl.org/dc/elements/1.1/" xmlns:cc="http://creativecommons.org/ns#" xmlns:rdf="http://www.w3.org/1999/02/22-rdf-syntax-ns#">
   <cc:Work>
    <dc:type rdf:resource="http://purl.org/dc/dcmitype/StillImage"/>
    <dc:date>2023-12-06T18:16:25.482395</dc:date>
    <dc:format>image/svg+xml</dc:format>
    <dc:creator>
     <cc:Agent>
      <dc:title>Matplotlib v3.6.2, https://matplotlib.org/</dc:title>
     </cc:Agent>
    </dc:creator>
   </cc:Work>
  </rdf:RDF>
 </metadata>
 <defs>
  <style type="text/css">*{stroke-linejoin: round; stroke-linecap: butt}</style>
 </defs>
 <g id="figure_1">
  <g id="patch_1">
   <path d="M 0 126.2592 
L 192.54528 126.2592 
L 192.54528 0 
L 0 0 
z
" style="fill: #ffffff"/>
  </g>
  <g id="axes_1">
   <g id="patch_2">
    <path d="M 34.72128 101.00736 
L 186.23232 101.00736 
L 186.23232 6.31296 
L 34.72128 6.31296 
z
" style="fill: #ffffff"/>
   </g>
   <g id="matplotlib.axis_1">
    <g id="xtick_1">
     <g id="line2d_1">
      <defs>
       <path id="me1a89adee7" d="M 0 0 
L 0 -2.54272 
" style="stroke: #000000; stroke-width: 0.6576"/>
      </defs>
      <g>
       <use xlink:href="#me1a89adee7" x="63.081164" y="101.00736" style="stroke: #000000; stroke-width: 0.6576"/>
      </g>
     </g>
     <g id="line2d_2">
      <defs>
       <path id="mf6ecfc7187" d="M 0 0 
L 0 2.54272 
" style="stroke: #000000; stroke-width: 0.6576"/>
      </defs>
      <g>
       <use xlink:href="#mf6ecfc7187" x="63.081164" y="6.31296" style="stroke: #000000; stroke-width: 0.6576"/>
      </g>
     </g>
     <g id="text_1">
      <!-- $\mathdefault{0.0}$ -->
      <g transform="translate(57.557324 110.155733) scale(0.078912 -0.078912)">
       <defs>
        <path id="ArialMT-30" d="M 266 2259 
Q 266 3072 433 3567 
Q 600 4063 929 4331 
Q 1259 4600 1759 4600 
Q 2128 4600 2406 4451 
Q 2684 4303 2865 4023 
Q 3047 3744 3150 3342 
Q 3253 2941 3253 2259 
Q 3253 1453 3087 958 
Q 2922 463 2592 192 
Q 2263 -78 1759 -78 
Q 1097 -78 719 397 
Q 266 969 266 2259 
z
M 844 2259 
Q 844 1131 1108 757 
Q 1372 384 1759 384 
Q 2147 384 2411 759 
Q 2675 1134 2675 2259 
Q 2675 3391 2411 3762 
Q 2147 4134 1753 4134 
Q 1366 4134 1134 3806 
Q 844 3388 844 2259 
z
" transform="scale(0.015625)"/>
        <path id="ArialMT-2e" d="M 581 0 
L 581 641 
L 1222 641 
L 1222 0 
L 581 0 
z
" transform="scale(0.015625)"/>
       </defs>
       <use xlink:href="#ArialMT-30" transform="translate(0 0.125)"/>
       <use xlink:href="#ArialMT-2e" transform="translate(55.615234 0.125)"/>
       <use xlink:href="#ArialMT-30" transform="translate(83.398438 0.125)"/>
      </g>
     </g>
    </g>
    <g id="xtick_2">
     <g id="line2d_3">
      <g>
       <use xlink:href="#me1a89adee7" x="111.538987" y="101.00736" style="stroke: #000000; stroke-width: 0.6576"/>
      </g>
     </g>
     <g id="line2d_4">
      <g>
       <use xlink:href="#mf6ecfc7187" x="111.538987" y="6.31296" style="stroke: #000000; stroke-width: 0.6576"/>
      </g>
     </g>
     <g id="text_2">
      <!-- $\mathdefault{0.5}$ -->
      <g transform="translate(106.015147 110.155733) scale(0.078912 -0.078912)">
       <defs>
        <path id="ArialMT-35" d="M 266 1200 
L 856 1250 
Q 922 819 1161 601 
Q 1400 384 1738 384 
Q 2144 384 2425 690 
Q 2706 997 2706 1503 
Q 2706 1984 2436 2262 
Q 2166 2541 1728 2541 
Q 1456 2541 1237 2417 
Q 1019 2294 894 2097 
L 366 2166 
L 809 4519 
L 3088 4519 
L 3088 3981 
L 1259 3981 
L 1013 2750 
Q 1425 3038 1878 3038 
Q 2478 3038 2890 2622 
Q 3303 2206 3303 1553 
Q 3303 931 2941 478 
Q 2500 -78 1738 -78 
Q 1113 -78 717 272 
Q 322 622 266 1200 
z
" transform="scale(0.015625)"/>
       </defs>
       <use xlink:href="#ArialMT-30" transform="translate(0 0.125)"/>
       <use xlink:href="#ArialMT-2e" transform="translate(55.615234 0.125)"/>
       <use xlink:href="#ArialMT-35" transform="translate(83.398438 0.125)"/>
      </g>
     </g>
    </g>
    <g id="xtick_3">
     <g id="line2d_5">
      <g>
       <use xlink:href="#me1a89adee7" x="159.996809" y="101.00736" style="stroke: #000000; stroke-width: 0.6576"/>
      </g>
     </g>
     <g id="line2d_6">
      <g>
       <use xlink:href="#mf6ecfc7187" x="159.996809" y="6.31296" style="stroke: #000000; stroke-width: 0.6576"/>
      </g>
     </g>
     <g id="text_3">
      <!-- $\mathdefault{1.0}$ -->
      <g transform="translate(154.472969 110.155733) scale(0.078912 -0.078912)">
       <defs>
        <path id="ArialMT-31" d="M 2384 0 
L 1822 0 
L 1822 3584 
Q 1619 3391 1289 3197 
Q 959 3003 697 2906 
L 697 3450 
Q 1169 3672 1522 3987 
Q 1875 4303 2022 4600 
L 2384 4600 
L 2384 0 
z
" transform="scale(0.015625)"/>
       </defs>
       <use xlink:href="#ArialMT-31" transform="translate(0 0.125)"/>
       <use xlink:href="#ArialMT-2e" transform="translate(55.615234 0.125)"/>
       <use xlink:href="#ArialMT-30" transform="translate(83.398438 0.125)"/>
      </g>
     </g>
    </g>
    <g id="xtick_4">
     <g id="line2d_7">
      <defs>
       <path id="m7cde0bbf0c" d="M 0 0 
L 0 -1.3152 
" style="stroke: #000000; stroke-width: 0.6576"/>
      </defs>
      <g>
       <use xlink:href="#m7cde0bbf0c" x="43.698034" y="101.00736" style="stroke: #000000; stroke-width: 0.6576"/>
      </g>
     </g>
     <g id="line2d_8">
      <defs>
       <path id="mc6487a0dcf" d="M 0 0 
L 0 1.3152 
" style="stroke: #000000; stroke-width: 0.6576"/>
      </defs>
      <g>
       <use xlink:href="#mc6487a0dcf" x="43.698034" y="6.31296" style="stroke: #000000; stroke-width: 0.6576"/>
      </g>
     </g>
    </g>
    <g id="xtick_5">
     <g id="line2d_9">
      <g>
       <use xlink:href="#m7cde0bbf0c" x="53.389599" y="101.00736" style="stroke: #000000; stroke-width: 0.6576"/>
      </g>
     </g>
     <g id="line2d_10">
      <g>
       <use xlink:href="#mc6487a0dcf" x="53.389599" y="6.31296" style="stroke: #000000; stroke-width: 0.6576"/>
      </g>
     </g>
    </g>
    <g id="xtick_6">
     <g id="line2d_11">
      <g>
       <use xlink:href="#m7cde0bbf0c" x="72.772728" y="101.00736" style="stroke: #000000; stroke-width: 0.6576"/>
      </g>
     </g>
     <g id="line2d_12">
      <g>
       <use xlink:href="#mc6487a0dcf" x="72.772728" y="6.31296" style="stroke: #000000; stroke-width: 0.6576"/>
      </g>
     </g>
    </g>
    <g id="xtick_7">
     <g id="line2d_13">
      <g>
       <use xlink:href="#m7cde0bbf0c" x="82.464293" y="101.00736" style="stroke: #000000; stroke-width: 0.6576"/>
      </g>
     </g>
     <g id="line2d_14">
      <g>
       <use xlink:href="#mc6487a0dcf" x="82.464293" y="6.31296" style="stroke: #000000; stroke-width: 0.6576"/>
      </g>
     </g>
    </g>
    <g id="xtick_8">
     <g id="line2d_15">
      <g>
       <use xlink:href="#m7cde0bbf0c" x="92.155857" y="101.00736" style="stroke: #000000; stroke-width: 0.6576"/>
      </g>
     </g>
     <g id="line2d_16">
      <g>
       <use xlink:href="#mc6487a0dcf" x="92.155857" y="6.31296" style="stroke: #000000; stroke-width: 0.6576"/>
      </g>
     </g>
    </g>
    <g id="xtick_9">
     <g id="line2d_17">
      <g>
       <use xlink:href="#m7cde0bbf0c" x="101.847422" y="101.00736" style="stroke: #000000; stroke-width: 0.6576"/>
      </g>
     </g>
     <g id="line2d_18">
      <g>
       <use xlink:href="#mc6487a0dcf" x="101.847422" y="6.31296" style="stroke: #000000; stroke-width: 0.6576"/>
      </g>
     </g>
    </g>
    <g id="xtick_10">
     <g id="line2d_19">
      <g>
       <use xlink:href="#m7cde0bbf0c" x="121.230551" y="101.00736" style="stroke: #000000; stroke-width: 0.6576"/>
      </g>
     </g>
     <g id="line2d_20">
      <g>
       <use xlink:href="#mc6487a0dcf" x="121.230551" y="6.31296" style="stroke: #000000; stroke-width: 0.6576"/>
      </g>
     </g>
    </g>
    <g id="xtick_11">
     <g id="line2d_21">
      <g>
       <use xlink:href="#m7cde0bbf0c" x="130.922116" y="101.00736" style="stroke: #000000; stroke-width: 0.6576"/>
      </g>
     </g>
     <g id="line2d_22">
      <g>
       <use xlink:href="#mc6487a0dcf" x="130.922116" y="6.31296" style="stroke: #000000; stroke-width: 0.6576"/>
      </g>
     </g>
    </g>
    <g id="xtick_12">
     <g id="line2d_23">
      <g>
       <use xlink:href="#m7cde0bbf0c" x="140.61368" y="101.00736" style="stroke: #000000; stroke-width: 0.6576"/>
      </g>
     </g>
     <g id="line2d_24">
      <g>
       <use xlink:href="#mc6487a0dcf" x="140.61368" y="6.31296" style="stroke: #000000; stroke-width: 0.6576"/>
      </g>
     </g>
    </g>
    <g id="xtick_13">
     <g id="line2d_25">
      <g>
       <use xlink:href="#m7cde0bbf0c" x="150.305245" y="101.00736" style="stroke: #000000; stroke-width: 0.6576"/>
      </g>
     </g>
     <g id="line2d_26">
      <g>
       <use xlink:href="#mc6487a0dcf" x="150.305245" y="6.31296" style="stroke: #000000; stroke-width: 0.6576"/>
      </g>
     </g>
    </g>
    <g id="xtick_14">
     <g id="line2d_27">
      <g>
       <use xlink:href="#m7cde0bbf0c" x="169.688374" y="101.00736" style="stroke: #000000; stroke-width: 0.6576"/>
      </g>
     </g>
     <g id="line2d_28">
      <g>
       <use xlink:href="#mc6487a0dcf" x="169.688374" y="6.31296" style="stroke: #000000; stroke-width: 0.6576"/>
      </g>
     </g>
    </g>
    <g id="xtick_15">
     <g id="line2d_29">
      <g>
       <use xlink:href="#m7cde0bbf0c" x="179.379939" y="101.00736" style="stroke: #000000; stroke-width: 0.6576"/>
      </g>
     </g>
     <g id="line2d_30">
      <g>
       <use xlink:href="#mc6487a0dcf" x="179.379939" y="6.31296" style="stroke: #000000; stroke-width: 0.6576"/>
      </g>
     </g>
    </g>
   </g>
   <g id="matplotlib.axis_2">
    <g id="ytick_1">
     <g id="line2d_31">
      <defs>
       <path id="m932d10ef0f" d="M 0 0 
L 2.54272 0 
" style="stroke: #000000; stroke-width: 0.6576"/>
      </defs>
      <g>
       <use xlink:href="#m932d10ef0f" x="34.72128" y="91.329042" style="stroke: #000000; stroke-width: 0.6576"/>
      </g>
     </g>
     <g id="line2d_32">
      <defs>
       <path id="me6c87989a7" d="M 0 0 
L -2.54272 0 
" style="stroke: #000000; stroke-width: 0.6576"/>
      </defs>
      <g>
       <use xlink:href="#me6c87989a7" x="186.23232" y="91.329042" style="stroke: #000000; stroke-width: 0.6576"/>
      </g>
     </g>
     <g id="text_4">
      <!-- $\mathdefault{−0.4}$ -->
      <g transform="translate(15.596704 94.153228) scale(0.078912 -0.078912)">
       <defs>
        <path id="ArialMT-2212" d="M 3381 1997 
L 356 1997 
L 356 2522 
L 3381 2522 
L 3381 1997 
z
" transform="scale(0.015625)"/>
        <path id="ArialMT-34" d="M 2069 0 
L 2069 1097 
L 81 1097 
L 81 1613 
L 2172 4581 
L 2631 4581 
L 2631 1613 
L 3250 1613 
L 3250 1097 
L 2631 1097 
L 2631 0 
L 2069 0 
z
M 2069 1613 
L 2069 3678 
L 634 1613 
L 2069 1613 
z
" transform="scale(0.015625)"/>
       </defs>
       <use xlink:href="#ArialMT-2212" transform="translate(0 0.125)"/>
       <use xlink:href="#ArialMT-30" transform="translate(58.398438 0.125)"/>
       <use xlink:href="#ArialMT-2e" transform="translate(114.013672 0.125)"/>
       <use xlink:href="#ArialMT-34" transform="translate(141.796875 0.125)"/>
      </g>
     </g>
    </g>
    <g id="ytick_2">
     <g id="line2d_33">
      <g>
       <use xlink:href="#m932d10ef0f" x="34.72128" y="68.380455" style="stroke: #000000; stroke-width: 0.6576"/>
      </g>
     </g>
     <g id="line2d_34">
      <g>
       <use xlink:href="#me6c87989a7" x="186.23232" y="68.380455" style="stroke: #000000; stroke-width: 0.6576"/>
      </g>
     </g>
     <g id="text_5">
      <!-- $\mathdefault{−0.2}$ -->
      <g transform="translate(15.596704 71.204642) scale(0.078912 -0.078912)">
       <defs>
        <path id="ArialMT-32" d="M 3222 541 
L 3222 0 
L 194 0 
Q 188 203 259 391 
Q 375 700 629 1000 
Q 884 1300 1366 1694 
Q 2113 2306 2375 2664 
Q 2638 3022 2638 3341 
Q 2638 3675 2398 3904 
Q 2159 4134 1775 4134 
Q 1369 4134 1125 3890 
Q 881 3647 878 3216 
L 300 3275 
Q 359 3922 746 4261 
Q 1134 4600 1788 4600 
Q 2447 4600 2831 4234 
Q 3216 3869 3216 3328 
Q 3216 3053 3103 2787 
Q 2991 2522 2730 2228 
Q 2469 1934 1863 1422 
Q 1356 997 1212 845 
Q 1069 694 975 541 
L 3222 541 
z
" transform="scale(0.015625)"/>
       </defs>
       <use xlink:href="#ArialMT-2212" transform="translate(0 0.125)"/>
       <use xlink:href="#ArialMT-30" transform="translate(58.398438 0.125)"/>
       <use xlink:href="#ArialMT-2e" transform="translate(114.013672 0.125)"/>
       <use xlink:href="#ArialMT-32" transform="translate(141.796875 0.125)"/>
      </g>
     </g>
    </g>
    <g id="ytick_3">
     <g id="line2d_35">
      <g>
       <use xlink:href="#m932d10ef0f" x="34.72128" y="45.431868" style="stroke: #000000; stroke-width: 0.6576"/>
      </g>
     </g>
     <g id="line2d_36">
      <g>
       <use xlink:href="#me6c87989a7" x="186.23232" y="45.431868" style="stroke: #000000; stroke-width: 0.6576"/>
      </g>
     </g>
     <g id="text_6">
      <!-- $\mathdefault{0.0}$ -->
      <g transform="translate(20.1736 48.256055) scale(0.078912 -0.078912)">
       <use xlink:href="#ArialMT-30" transform="translate(0 0.125)"/>
       <use xlink:href="#ArialMT-2e" transform="translate(55.615234 0.125)"/>
       <use xlink:href="#ArialMT-30" transform="translate(83.398438 0.125)"/>
      </g>
     </g>
    </g>
    <g id="ytick_4">
     <g id="line2d_37">
      <g>
       <use xlink:href="#m932d10ef0f" x="34.72128" y="22.483282" style="stroke: #000000; stroke-width: 0.6576"/>
      </g>
     </g>
     <g id="line2d_38">
      <g>
       <use xlink:href="#me6c87989a7" x="186.23232" y="22.483282" style="stroke: #000000; stroke-width: 0.6576"/>
      </g>
     </g>
     <g id="text_7">
      <!-- $\mathdefault{0.2}$ -->
      <g transform="translate(20.1736 25.307468) scale(0.078912 -0.078912)">
       <use xlink:href="#ArialMT-30" transform="translate(0 0.125)"/>
       <use xlink:href="#ArialMT-2e" transform="translate(55.615234 0.125)"/>
       <use xlink:href="#ArialMT-32" transform="translate(83.398438 0.125)"/>
      </g>
     </g>
    </g>
    <g id="ytick_5">
     <g id="line2d_39">
      <defs>
       <path id="ma39be6c64a" d="M 0 0 
L 1.3152 0 
" style="stroke: #000000; stroke-width: 0.6576"/>
      </defs>
      <g>
       <use xlink:href="#ma39be6c64a" x="34.72128" y="97.066188" style="stroke: #000000; stroke-width: 0.6576"/>
      </g>
     </g>
     <g id="line2d_40">
      <defs>
       <path id="m19d02e86db" d="M 0 0 
L -1.3152 0 
" style="stroke: #000000; stroke-width: 0.6576"/>
      </defs>
      <g>
       <use xlink:href="#m19d02e86db" x="186.23232" y="97.066188" style="stroke: #000000; stroke-width: 0.6576"/>
      </g>
     </g>
    </g>
    <g id="ytick_6">
     <g id="line2d_41">
      <g>
       <use xlink:href="#ma39be6c64a" x="34.72128" y="85.591895" style="stroke: #000000; stroke-width: 0.6576"/>
      </g>
     </g>
     <g id="line2d_42">
      <g>
       <use xlink:href="#m19d02e86db" x="186.23232" y="85.591895" style="stroke: #000000; stroke-width: 0.6576"/>
      </g>
     </g>
    </g>
    <g id="ytick_7">
     <g id="line2d_43">
      <g>
       <use xlink:href="#ma39be6c64a" x="34.72128" y="79.854748" style="stroke: #000000; stroke-width: 0.6576"/>
      </g>
     </g>
     <g id="line2d_44">
      <g>
       <use xlink:href="#m19d02e86db" x="186.23232" y="79.854748" style="stroke: #000000; stroke-width: 0.6576"/>
      </g>
     </g>
    </g>
    <g id="ytick_8">
     <g id="line2d_45">
      <g>
       <use xlink:href="#ma39be6c64a" x="34.72128" y="74.117602" style="stroke: #000000; stroke-width: 0.6576"/>
      </g>
     </g>
     <g id="line2d_46">
      <g>
       <use xlink:href="#m19d02e86db" x="186.23232" y="74.117602" style="stroke: #000000; stroke-width: 0.6576"/>
      </g>
     </g>
    </g>
    <g id="ytick_9">
     <g id="line2d_47">
      <g>
       <use xlink:href="#ma39be6c64a" x="34.72128" y="62.643308" style="stroke: #000000; stroke-width: 0.6576"/>
      </g>
     </g>
     <g id="line2d_48">
      <g>
       <use xlink:href="#m19d02e86db" x="186.23232" y="62.643308" style="stroke: #000000; stroke-width: 0.6576"/>
      </g>
     </g>
    </g>
    <g id="ytick_10">
     <g id="line2d_49">
      <g>
       <use xlink:href="#ma39be6c64a" x="34.72128" y="56.906162" style="stroke: #000000; stroke-width: 0.6576"/>
      </g>
     </g>
     <g id="line2d_50">
      <g>
       <use xlink:href="#m19d02e86db" x="186.23232" y="56.906162" style="stroke: #000000; stroke-width: 0.6576"/>
      </g>
     </g>
    </g>
    <g id="ytick_11">
     <g id="line2d_51">
      <g>
       <use xlink:href="#ma39be6c64a" x="34.72128" y="51.169015" style="stroke: #000000; stroke-width: 0.6576"/>
      </g>
     </g>
     <g id="line2d_52">
      <g>
       <use xlink:href="#m19d02e86db" x="186.23232" y="51.169015" style="stroke: #000000; stroke-width: 0.6576"/>
      </g>
     </g>
    </g>
    <g id="ytick_12">
     <g id="line2d_53">
      <g>
       <use xlink:href="#ma39be6c64a" x="34.72128" y="39.694722" style="stroke: #000000; stroke-width: 0.6576"/>
      </g>
     </g>
     <g id="line2d_54">
      <g>
       <use xlink:href="#m19d02e86db" x="186.23232" y="39.694722" style="stroke: #000000; stroke-width: 0.6576"/>
      </g>
     </g>
    </g>
    <g id="ytick_13">
     <g id="line2d_55">
      <g>
       <use xlink:href="#ma39be6c64a" x="34.72128" y="33.957575" style="stroke: #000000; stroke-width: 0.6576"/>
      </g>
     </g>
     <g id="line2d_56">
      <g>
       <use xlink:href="#m19d02e86db" x="186.23232" y="33.957575" style="stroke: #000000; stroke-width: 0.6576"/>
      </g>
     </g>
    </g>
    <g id="ytick_14">
     <g id="line2d_57">
      <g>
       <use xlink:href="#ma39be6c64a" x="34.72128" y="28.220428" style="stroke: #000000; stroke-width: 0.6576"/>
      </g>
     </g>
     <g id="line2d_58">
      <g>
       <use xlink:href="#m19d02e86db" x="186.23232" y="28.220428" style="stroke: #000000; stroke-width: 0.6576"/>
      </g>
     </g>
    </g>
    <g id="ytick_15">
     <g id="line2d_59">
      <g>
       <use xlink:href="#ma39be6c64a" x="34.72128" y="16.746135" style="stroke: #000000; stroke-width: 0.6576"/>
      </g>
     </g>
     <g id="line2d_60">
      <g>
       <use xlink:href="#m19d02e86db" x="186.23232" y="16.746135" style="stroke: #000000; stroke-width: 0.6576"/>
      </g>
     </g>
    </g>
    <g id="ytick_16">
     <g id="line2d_61">
      <g>
       <use xlink:href="#ma39be6c64a" x="34.72128" y="11.008988" style="stroke: #000000; stroke-width: 0.6576"/>
      </g>
     </g>
     <g id="line2d_62">
      <g>
       <use xlink:href="#m19d02e86db" x="186.23232" y="11.008988" style="stroke: #000000; stroke-width: 0.6576"/>
      </g>
     </g>
    </g>
   </g>
   <g id="line2d_63">
    <path d="M 157.277168 25.935145 
L 159.405737 24.461386 
L 160.375514 23.742958 
L 162.116531 22.540645 
L 162.891197 21.969798 
L 164.633843 20.704841 
L 165.213573 20.324298 
L 166.761773 19.252269 
L 177.795257 11.762612 
L 179.151517 10.770619 
L 179.345455 10.617251 
L 179.166527 16.418749 
L 178.595726 21.984756 
L 177.829408 26.790245 
L 177.060584 30.282047 
L 176.098753 33.642459 
L 174.749873 37.178817 
L 173.398102 39.931099 
L 172.046056 42.163826 
L 170.692927 44.01724 
L 169.725041 45.238529 
L 165.468535 49.428901 
L 161.211363 52.83371 
L 160.632264 53.241006 
L 159.082241 54.428962 
L 157.534213 55.594309 
L 147.083194 64.248111 
L 145.923527 65.265971 
L 144.180979 66.743208 
L 142.054428 68.207418 
L 140.503402 68.84815 
L 139.34045 69.026247 
L 137.98284 68.85947 
L 136.238027 68.097277 
L 133.326228 66.000811 
L 132.354497 65.178377 
L 130.800584 63.874651 
L 124.395573 59.250105 
L 122.84299 58.355066 
L 121.290505 57.565962 
L 118.767856 56.491561 
L 116.635538 55.762698 
L 114.308619 55.142963 
L 109.266294 54.351551 
L 104.809022 54.1264 
L 99.963534 54.445469 
L 97.057716 55.292948 
L 96.669907 55.477622 
L 95.700848 56.006158 
L 93.185452 57.883008 
L 91.638416 59.325429 
L 89.123331 62.639387 
L 88.157615 64.462858 
L 87.579372 65.601262 
L 87.386225 66.185612 
L 87.193774 66.409877 
L 86.806855 67.34378 
L 86.422796 68.199101 
L 86.03538 69.02027 
L 85.648534 69.782653 
L 84.683033 71.299956 
L 83.909079 71.942269 
L 83.715185 72.330528 
L 83.327201 72.41983 
L 83.134484 72.76309 
L 82.940977 72.781147 
L 82.168242 73.348262 
L 81.974367 73.218863 
L 81.780333 73.795212 
L 81.586406 73.689973 
L 81.199948 73.870979 
L 81.006154 73.996994 
L 80.618219 74.535871 
L 80.424084 74.422916 
L 80.230554 74.851209 
L 80.038258 74.895891 
L 79.651925 75.303598 
L 79.071346 76.119834 
L 78.877487 76.263304 
L 78.490188 76.989606 
L 78.296442 77.353674 
L 78.103847 77.446328 
L 77.91224 78.183444 
L 77.717875 78.314993 
L 76.560277 81.09523 
L 76.367688 81.244171 
L 75.982046 82.557447 
L 75.596101 83.494101 
L 75.016867 85.149214 
L 74.246846 86.984258 
L 74.053757 87.970559 
L 73.859389 88.100527 
L 73.089813 89.914385 
L 72.704072 90.803605 
L 72.511232 90.920924 
L 72.317454 91.63717 
L 72.124164 91.562541 
L 71.933158 91.834493 
L 71.543659 92.682605 
L 71.349153 92.52639 
L 70.962419 92.87392 
L 70.575633 93.193305 
L 70.382662 93.240106 
L 70.189196 93.54463 
L 69.996266 93.349203 
L 69.802278 93.897851 
L 69.609196 93.725193 
L 69.415873 94.107823 
L 69.223079 94.197947 
L 69.03129 94.466105 
L 68.449461 95.657318 
L 68.063232 96.703069 
L 68.183154 62.321804 
L 68.55564 54.205108 
L 69.125871 48.487033 
L 69.699455 44.543565 
L 70.851704 39.005481 
L 72.585293 32.90784 
L 74.321569 28.962099 
L 74.707228 28.767938 
L 74.901325 28.278361 
L 75.094919 28.360326 
L 75.287768 28.194972 
L 75.482232 27.799915 
L 75.67502 27.97077 
L 75.868016 27.621059 
L 76.255748 27.605912 
L 76.836977 27.356063 
L 77.805649 27.514523 
L 77.999698 27.422154 
L 78.194387 27.466678 
L 78.388831 27.325421 
L 78.582117 27.609105 
L 78.775669 27.35151 
L 79.16419 27.554905 
L 79.551103 27.516231 
L 79.939204 27.438123 
L 80.133554 27.298479 
L 80.327868 27.508799 
L 80.713859 27.178536 
L 80.908481 27.239756 
L 81.488712 26.868415 
L 81.682339 26.915374 
L 82.650685 26.103755 
L 82.8436 26.132437 
L 83.231476 25.667525 
L 83.426477 25.512892 
L 83.619221 25.553811 
L 84.005523 25.129313 
L 84.585301 24.774573 
L 84.973814 24.287558 
L 85.167926 24.334454 
L 85.360468 24.212897 
L 85.554309 23.953974 
L 85.748116 24.099436 
L 85.941577 23.791972 
L 87.296922 23.463385 
L 87.491059 23.630414 
L 87.685145 23.504747 
L 87.879406 23.792289 
L 88.267304 23.761963 
L 88.656261 24.150412 
L 88.850189 24.256473 
L 89.043806 24.561945 
L 89.237393 24.587749 
L 89.821163 25.352725 
L 90.208992 25.707939 
L 92.345112 27.87565 
L 93.316971 28.609668 
L 93.899198 29.167581 
L 94.287881 29.406899 
L 96.033532 30.995858 
L 97.005141 31.91025 
L 97.976682 32.893705 
L 99.724657 34.692858 
L 102.056567 37.241461 
L 103.417132 38.75576 
L 104.582747 39.871111 
L 106.910731 41.335953 
L 108.46119 41.918879 
L 112.146409 42.553995 
L 116.023332 42.716044 
L 120.093506 42.614198 
L 124.74479 42.250408 
L 125.133557 42.166071 
L 126.29572 42.086351 
L 127.845359 41.851777 
L 130.557988 41.406977 
L 131.139107 41.255411 
L 132.109883 41.029153 
L 133.659748 40.653448 
L 133.852678 40.637732 
L 134.238396 40.475667 
L 137.532902 39.394626 
L 137.918935 39.245748 
L 138.113401 39.274904 
L 138.500301 38.964878 
L 139.469742 38.591323 
L 139.856822 38.379833 
L 140.436551 38.15718 
L 140.825675 37.896992 
L 141.211221 37.746944 
L 141.985679 37.274253 
L 143.72929 36.271161 
L 143.92377 35.937924 
L 144.310396 35.795466 
L 144.889243 35.355978 
L 145.278349 35.033494 
L 145.470965 34.952193 
L 145.663897 34.726188 
L 145.85843 34.686059 
L 146.051761 34.307223 
L 146.438827 34.140574 
L 147.212523 33.463856 
L 147.408132 33.640277 
L 147.595366 32.843868 
L 147.792318 32.959985 
L 148.760024 32.169174 
L 149.341052 31.598137 
L 150.114698 30.946749 
L 151.664148 29.605424 
L 151.85683 29.559761 
L 152.437732 29.025691 
L 153.59817 28.058143 
L 154.179497 27.650373 
L 154.56595 27.360459 
L 155.533669 26.682349 
L 157.08271 25.487942 
L 157.08271 25.487942 
" clip-path="url(#pbff2fe6604)" style="fill: none; stroke: #1f77b4; stroke-width: 0.6576; stroke-linecap: square"/>
   </g>
   <g id="line2d_64">
    <path d="M 130.951869 38.357404 
L 135.410473 37.226085 
L 136.57317 36.918562 
L 140.44873 35.932496 
L 153.048248 32.799245 
L 152.858681 34.904342 
L 152.277672 36.92399 
L 151.502541 38.667681 
L 150.533869 40.210686 
L 149.372432 41.563448 
L 147.822266 42.895958 
L 145.690994 44.246046 
L 143.75239 45.185668 
L 142.394893 45.752934 
L 135.419002 47.947802 
L 128.441657 49.879798 
L 126.697466 50.392033 
L 120.88243 52.204134 
L 114.681573 53.863145 
L 112.549138 53.987756 
L 110.416897 53.764638 
L 108.477712 53.326572 
L 106.34518 52.714809 
L 103.631542 51.899721 
L 98.590475 50.567693 
L 91.225079 49.293496 
L 84.63375 48.740481 
L 77.462864 48.589319 
L 73.585947 48.70249 
L 69.514618 49.221632 
L 66.219874 50.132577 
L 63.312404 51.318938 
L 62.536982 51.826653 
L 62.150095 52.059776 
L 59.04831 54.389012 
L 58.662585 54.561172 
L 57.693041 55.019822 
L 56.91665 55.224558 
L 56.529763 55.355663 
L 52.847937 56.452147 
L 50.716472 57.825826 
L 47.809584 60.509319 
L 47.614686 60.867203 
L 47.42008 60.914362 
L 46.454606 61.743953 
L 45.871659 62.197647 
L 45.678506 62.170568 
L 44.514355 62.646407 
L 44.126983 62.762297 
L 43.547331 62.818865 
L 43.352336 63.017944 
L 43.159571 62.955294 
L 42.772587 63.126835 
L 42.189349 63.484259 
L 41.608145 64.035829 
L 41.791122 51.560449 
L 42.178494 48.615273 
L 42.759213 46.540447 
L 43.340028 45.109544 
L 44.502434 43.100028 
L 46.247207 40.887475 
L 48.18455 39.422953 
L 48.376734 39.385295 
L 48.571728 39.20765 
L 48.958325 39.177392 
L 49.153513 39.034043 
L 49.345988 39.096039 
L 49.539625 38.969145 
L 50.121313 38.925382 
L 52.060982 38.861872 
L 52.253748 38.964808 
L 52.447773 38.871338 
L 53.222904 38.931108 
L 54.192254 38.867919 
L 54.775202 38.774392 
L 55.54917 38.655541 
L 55.937318 38.52447 
L 56.517939 38.428993 
L 57.101953 38.204188 
L 57.294621 38.219036 
L 57.875534 38.017237 
L 58.455574 37.823035 
L 59.232643 37.638528 
L 59.426184 37.69131 
L 59.81278 37.562362 
L 60.976156 37.460516 
L 61.558037 37.57986 
L 62.139725 37.664472 
L 63.303779 38.013485 
L 63.691054 38.189558 
L 65.628494 38.929903 
L 66.986767 39.327866 
L 68.149949 39.687275 
L 70.088165 40.313634 
L 71.638621 40.882346 
L 74.546478 41.990659 
L 78.812608 43.572035 
L 80.557187 43.945649 
L 83.077575 44.246528 
L 87.535307 44.429067 
L 97.615697 44.304783 
L 104.397951 43.940394 
L 111.763637 43.197789 
L 112.345325 43.063792 
L 114.088837 42.792219 
L 115.058672 42.588481 
L 118.546666 41.775791 
L 119.322476 41.547269 
L 119.517082 41.532709 
L 119.905036 41.37722 
L 121.068702 41.153242 
L 121.257397 40.864262 
L 121.648161 40.854291 
L 124.168161 40.044286 
L 124.747911 39.886928 
L 126.880443 39.259972 
L 130.758231 38.195135 
L 130.758231 38.195135 
" clip-path="url(#pbff2fe6604)" style="fill: none; stroke: #7f7f7f; stroke-width: 0.6576; stroke-linecap: square"/>
   </g>
   <g id="patch_3">
    <path d="M 34.72128 101.00736 
L 34.72128 6.31296 
" style="fill: none; stroke: #000000; stroke-width: 0.6576; stroke-linejoin: miter; stroke-linecap: square"/>
   </g>
   <g id="patch_4">
    <path d="M 186.23232 101.00736 
L 186.23232 6.31296 
" style="fill: none; stroke: #000000; stroke-width: 0.6576; stroke-linejoin: miter; stroke-linecap: square"/>
   </g>
   <g id="patch_5">
    <path d="M 34.72128 101.00736 
L 186.23232 101.00736 
" style="fill: none; stroke: #000000; stroke-width: 0.6576; stroke-linejoin: miter; stroke-linecap: square"/>
   </g>
   <g id="patch_6">
    <path d="M 34.72128 6.31296 
L 186.23232 6.31296 
" style="fill: none; stroke: #000000; stroke-width: 0.6576; stroke-linejoin: miter; stroke-linecap: square"/>
   </g>
   <g id="text_8">
    <!-- $j_\mathrm{geo}$ / mA cm$^{-2}$ -->
    <g style="fill: #1f77b4" transform="translate(9.849293 59.713792) rotate(-90) scale(0.08 -0.08)">
     <defs>
      <path id="DejaVuSans-Oblique-6a" d="M 928 3500 
L 1503 3500 
L 813 -63 
L 809 -78 
Q 694 -675 544 -897 
Q 403 -1106 132 -1218 
Q -138 -1331 -506 -1331 
L -722 -1331 
L -628 -844 
L -481 -844 
Q -144 -844 -1 -703 
Q 141 -563 238 -63 
L 928 3500 
z
M 1197 4863 
L 1772 4863 
L 1631 4134 
L 1056 4134 
L 1197 4863 
z
" transform="scale(0.015625)"/>
      <path id="DejaVuSans-67" d="M 2906 1791 
Q 2906 2416 2648 2759 
Q 2391 3103 1925 3103 
Q 1463 3103 1205 2759 
Q 947 2416 947 1791 
Q 947 1169 1205 825 
Q 1463 481 1925 481 
Q 2391 481 2648 825 
Q 2906 1169 2906 1791 
z
M 3481 434 
Q 3481 -459 3084 -895 
Q 2688 -1331 1869 -1331 
Q 1566 -1331 1297 -1286 
Q 1028 -1241 775 -1147 
L 775 -588 
Q 1028 -725 1275 -790 
Q 1522 -856 1778 -856 
Q 2344 -856 2625 -561 
Q 2906 -266 2906 331 
L 2906 616 
Q 2728 306 2450 153 
Q 2172 0 1784 0 
Q 1141 0 747 490 
Q 353 981 353 1791 
Q 353 2603 747 3093 
Q 1141 3584 1784 3584 
Q 2172 3584 2450 3431 
Q 2728 3278 2906 2969 
L 2906 3500 
L 3481 3500 
L 3481 434 
z
" transform="scale(0.015625)"/>
      <path id="DejaVuSans-65" d="M 3597 1894 
L 3597 1613 
L 953 1613 
Q 991 1019 1311 708 
Q 1631 397 2203 397 
Q 2534 397 2845 478 
Q 3156 559 3463 722 
L 3463 178 
Q 3153 47 2828 -22 
Q 2503 -91 2169 -91 
Q 1331 -91 842 396 
Q 353 884 353 1716 
Q 353 2575 817 3079 
Q 1281 3584 2069 3584 
Q 2775 3584 3186 3129 
Q 3597 2675 3597 1894 
z
M 3022 2063 
Q 3016 2534 2758 2815 
Q 2500 3097 2075 3097 
Q 1594 3097 1305 2825 
Q 1016 2553 972 2059 
L 3022 2063 
z
" transform="scale(0.015625)"/>
      <path id="DejaVuSans-6f" d="M 1959 3097 
Q 1497 3097 1228 2736 
Q 959 2375 959 1747 
Q 959 1119 1226 758 
Q 1494 397 1959 397 
Q 2419 397 2687 759 
Q 2956 1122 2956 1747 
Q 2956 2369 2687 2733 
Q 2419 3097 1959 3097 
z
M 1959 3584 
Q 2709 3584 3137 3096 
Q 3566 2609 3566 1747 
Q 3566 888 3137 398 
Q 2709 -91 1959 -91 
Q 1206 -91 779 398 
Q 353 888 353 1747 
Q 353 2609 779 3096 
Q 1206 3584 1959 3584 
z
" transform="scale(0.015625)"/>
      <path id="ArialMT-20" transform="scale(0.015625)"/>
      <path id="ArialMT-2f" d="M 0 -78 
L 1328 4659 
L 1778 4659 
L 453 -78 
L 0 -78 
z
" transform="scale(0.015625)"/>
      <path id="ArialMT-6d" d="M 422 0 
L 422 3319 
L 925 3319 
L 925 2853 
Q 1081 3097 1340 3245 
Q 1600 3394 1931 3394 
Q 2300 3394 2536 3241 
Q 2772 3088 2869 2813 
Q 3263 3394 3894 3394 
Q 4388 3394 4653 3120 
Q 4919 2847 4919 2278 
L 4919 0 
L 4359 0 
L 4359 2091 
Q 4359 2428 4304 2576 
Q 4250 2725 4106 2815 
Q 3963 2906 3769 2906 
Q 3419 2906 3187 2673 
Q 2956 2441 2956 1928 
L 2956 0 
L 2394 0 
L 2394 2156 
Q 2394 2531 2256 2718 
Q 2119 2906 1806 2906 
Q 1569 2906 1367 2781 
Q 1166 2656 1075 2415 
Q 984 2175 984 1722 
L 984 0 
L 422 0 
z
" transform="scale(0.015625)"/>
      <path id="ArialMT-41" d="M -9 0 
L 1750 4581 
L 2403 4581 
L 4278 0 
L 3588 0 
L 3053 1388 
L 1138 1388 
L 634 0 
L -9 0 
z
M 1313 1881 
L 2866 1881 
L 2388 3150 
Q 2169 3728 2063 4100 
Q 1975 3659 1816 3225 
L 1313 1881 
z
" transform="scale(0.015625)"/>
      <path id="ArialMT-63" d="M 2588 1216 
L 3141 1144 
Q 3050 572 2676 248 
Q 2303 -75 1759 -75 
Q 1078 -75 664 370 
Q 250 816 250 1647 
Q 250 2184 428 2587 
Q 606 2991 970 3192 
Q 1334 3394 1763 3394 
Q 2303 3394 2647 3120 
Q 2991 2847 3088 2344 
L 2541 2259 
Q 2463 2594 2264 2762 
Q 2066 2931 1784 2931 
Q 1359 2931 1093 2626 
Q 828 2322 828 1663 
Q 828 994 1084 691 
Q 1341 388 1753 388 
Q 2084 388 2306 591 
Q 2528 794 2588 1216 
z
" transform="scale(0.015625)"/>
      <path id="DejaVuSans-2212" d="M 678 2272 
L 4684 2272 
L 4684 1741 
L 678 1741 
L 678 2272 
z
" transform="scale(0.015625)"/>
      <path id="DejaVuSans-32" d="M 1228 531 
L 3431 531 
L 3431 0 
L 469 0 
L 469 531 
Q 828 903 1448 1529 
Q 2069 2156 2228 2338 
Q 2531 2678 2651 2914 
Q 2772 3150 2772 3378 
Q 2772 3750 2511 3984 
Q 2250 4219 1831 4219 
Q 1534 4219 1204 4116 
Q 875 4013 500 3803 
L 500 4441 
Q 881 4594 1212 4672 
Q 1544 4750 1819 4750 
Q 2544 4750 2975 4387 
Q 3406 4025 3406 3419 
Q 3406 3131 3298 2873 
Q 3191 2616 2906 2266 
Q 2828 2175 2409 1742 
Q 1991 1309 1228 531 
z
" transform="scale(0.015625)"/>
     </defs>
     <use xlink:href="#DejaVuSans-Oblique-6a" transform="translate(0 0.765625)"/>
     <use xlink:href="#DejaVuSans-67" transform="translate(27.783203 -15.640625) scale(0.7)"/>
     <use xlink:href="#DejaVuSans-65" transform="translate(72.216797 -15.640625) scale(0.7)"/>
     <use xlink:href="#DejaVuSans-6f" transform="translate(115.283203 -15.640625) scale(0.7)"/>
     <use xlink:href="#ArialMT-20" transform="translate(160.844727 0.765625)"/>
     <use xlink:href="#ArialMT-2f" transform="translate(188.62793 0.765625)"/>
     <use xlink:href="#ArialMT-20" transform="translate(216.411133 0.765625)"/>
     <use xlink:href="#ArialMT-6d" transform="translate(244.194336 0.765625)"/>
     <use xlink:href="#ArialMT-41" transform="translate(327.495117 0.765625)"/>
     <use xlink:href="#ArialMT-20" transform="translate(394.194336 0.765625)"/>
     <use xlink:href="#ArialMT-63" transform="translate(421.977539 0.765625)"/>
     <use xlink:href="#ArialMT-6d" transform="translate(471.977539 0.765625)"/>
     <use xlink:href="#DejaVuSans-2212" transform="translate(556.235352 39.046875) scale(0.7)"/>
     <use xlink:href="#DejaVuSans-32" transform="translate(614.887695 39.046875) scale(0.7)"/>
    </g>
   </g>
   <g id="text_9">
    <!-- $\rightarrow$ -->
    <g transform="translate(10.739293 72.443792) rotate(-90) scale(0.08 -0.08)">
     <defs>
      <path id="DejaVuSans-2192" d="M 5050 2147 
L 5050 1866 
L 3822 638 
L 3447 1013 
L 4175 1741 
L 366 1741 
L 366 2272 
L 4175 2272 
L 3447 3000 
L 3822 3375 
L 5050 2147 
z
" transform="scale(0.015625)"/>
     </defs>
     <use xlink:href="#DejaVuSans-2192" transform="translate(19.482422 0.265625)"/>
    </g>
   </g>
   <g id="text_10">
    <!-- $I$ / 10$^{-4}$A -->
    <g style="fill: #7f7f7f" transform="translate(10.739293 106.283792) rotate(-90) scale(0.08 -0.08)">
     <defs>
      <path id="DejaVuSans-Oblique-49" d="M 1081 4666 
L 1716 4666 
L 806 0 
L 172 0 
L 1081 4666 
z
" transform="scale(0.015625)"/>
      <path id="DejaVuSans-34" d="M 2419 4116 
L 825 1625 
L 2419 1625 
L 2419 4116 
z
M 2253 4666 
L 3047 4666 
L 3047 1625 
L 3713 1625 
L 3713 1100 
L 3047 1100 
L 3047 0 
L 2419 0 
L 2419 1100 
L 313 1100 
L 313 1709 
L 2253 4666 
z
" transform="scale(0.015625)"/>
     </defs>
     <use xlink:href="#DejaVuSans-Oblique-49" transform="translate(0 0.684375)"/>
     <use xlink:href="#ArialMT-20" transform="translate(29.492188 0.684375)"/>
     <use xlink:href="#ArialMT-2f" transform="translate(57.275391 0.684375)"/>
     <use xlink:href="#ArialMT-20" transform="translate(85.058594 0.684375)"/>
     <use xlink:href="#ArialMT-31" transform="translate(112.841797 0.684375)"/>
     <use xlink:href="#ArialMT-30" transform="translate(168.457031 0.684375)"/>
     <use xlink:href="#DejaVuSans-2212" transform="translate(225.029297 38.965625) scale(0.7)"/>
     <use xlink:href="#DejaVuSans-34" transform="translate(283.681641 38.965625) scale(0.7)"/>
     <use xlink:href="#ArialMT-41" transform="translate(330.952148 0.684375)"/>
    </g>
   </g>
   <g id="text_11">
    <!-- $E_\mathrm{raw}$ / V vs. Ag/AgCl -->
    <g style="fill: #7f7f7f" transform="translate(13.75232 121.772352) scale(0.08 -0.08)">
     <defs>
      <path id="DejaVuSans-Oblique-45" d="M 1081 4666 
L 4031 4666 
L 3928 4134 
L 1606 4134 
L 1338 2753 
L 3566 2753 
L 3463 2222 
L 1234 2222 
L 909 531 
L 3284 531 
L 3181 0 
L 172 0 
L 1081 4666 
z
" transform="scale(0.015625)"/>
      <path id="DejaVuSans-72" d="M 2631 2963 
Q 2534 3019 2420 3045 
Q 2306 3072 2169 3072 
Q 1681 3072 1420 2755 
Q 1159 2438 1159 1844 
L 1159 0 
L 581 0 
L 581 3500 
L 1159 3500 
L 1159 2956 
Q 1341 3275 1631 3429 
Q 1922 3584 2338 3584 
Q 2397 3584 2469 3576 
Q 2541 3569 2628 3553 
L 2631 2963 
z
" transform="scale(0.015625)"/>
      <path id="DejaVuSans-61" d="M 2194 1759 
Q 1497 1759 1228 1600 
Q 959 1441 959 1056 
Q 959 750 1161 570 
Q 1363 391 1709 391 
Q 2188 391 2477 730 
Q 2766 1069 2766 1631 
L 2766 1759 
L 2194 1759 
z
M 3341 1997 
L 3341 0 
L 2766 0 
L 2766 531 
Q 2569 213 2275 61 
Q 1981 -91 1556 -91 
Q 1019 -91 701 211 
Q 384 513 384 1019 
Q 384 1609 779 1909 
Q 1175 2209 1959 2209 
L 2766 2209 
L 2766 2266 
Q 2766 2663 2505 2880 
Q 2244 3097 1772 3097 
Q 1472 3097 1187 3025 
Q 903 2953 641 2809 
L 641 3341 
Q 956 3463 1253 3523 
Q 1550 3584 1831 3584 
Q 2591 3584 2966 3190 
Q 3341 2797 3341 1997 
z
" transform="scale(0.015625)"/>
      <path id="DejaVuSans-77" d="M 269 3500 
L 844 3500 
L 1563 769 
L 2278 3500 
L 2956 3500 
L 3675 769 
L 4391 3500 
L 4966 3500 
L 4050 0 
L 3372 0 
L 2619 2869 
L 1863 0 
L 1184 0 
L 269 3500 
z
" transform="scale(0.015625)"/>
      <path id="ArialMT-56" d="M 1803 0 
L 28 4581 
L 684 4581 
L 1875 1253 
Q 2019 853 2116 503 
Q 2222 878 2363 1253 
L 3600 4581 
L 4219 4581 
L 2425 0 
L 1803 0 
z
" transform="scale(0.015625)"/>
      <path id="ArialMT-76" d="M 1344 0 
L 81 3319 
L 675 3319 
L 1388 1331 
Q 1503 1009 1600 663 
Q 1675 925 1809 1294 
L 2547 3319 
L 3125 3319 
L 1869 0 
L 1344 0 
z
" transform="scale(0.015625)"/>
      <path id="ArialMT-73" d="M 197 991 
L 753 1078 
Q 800 744 1014 566 
Q 1228 388 1613 388 
Q 2000 388 2187 545 
Q 2375 703 2375 916 
Q 2375 1106 2209 1216 
Q 2094 1291 1634 1406 
Q 1016 1563 777 1677 
Q 538 1791 414 1992 
Q 291 2194 291 2438 
Q 291 2659 392 2848 
Q 494 3038 669 3163 
Q 800 3259 1026 3326 
Q 1253 3394 1513 3394 
Q 1903 3394 2198 3281 
Q 2494 3169 2634 2976 
Q 2775 2784 2828 2463 
L 2278 2388 
Q 2241 2644 2061 2787 
Q 1881 2931 1553 2931 
Q 1166 2931 1000 2803 
Q 834 2675 834 2503 
Q 834 2394 903 2306 
Q 972 2216 1119 2156 
Q 1203 2125 1616 2013 
Q 2213 1853 2448 1751 
Q 2684 1650 2818 1456 
Q 2953 1263 2953 975 
Q 2953 694 2789 445 
Q 2625 197 2315 61 
Q 2006 -75 1616 -75 
Q 969 -75 630 194 
Q 291 463 197 991 
z
" transform="scale(0.015625)"/>
      <path id="ArialMT-67" d="M 319 -275 
L 866 -356 
Q 900 -609 1056 -725 
Q 1266 -881 1628 -881 
Q 2019 -881 2231 -725 
Q 2444 -569 2519 -288 
Q 2563 -116 2559 434 
Q 2191 0 1641 0 
Q 956 0 581 494 
Q 206 988 206 1678 
Q 206 2153 378 2554 
Q 550 2956 876 3175 
Q 1203 3394 1644 3394 
Q 2231 3394 2613 2919 
L 2613 3319 
L 3131 3319 
L 3131 450 
Q 3131 -325 2973 -648 
Q 2816 -972 2473 -1159 
Q 2131 -1347 1631 -1347 
Q 1038 -1347 672 -1080 
Q 306 -813 319 -275 
z
M 784 1719 
Q 784 1066 1043 766 
Q 1303 466 1694 466 
Q 2081 466 2343 764 
Q 2606 1063 2606 1700 
Q 2606 2309 2336 2618 
Q 2066 2928 1684 2928 
Q 1309 2928 1046 2623 
Q 784 2319 784 1719 
z
" transform="scale(0.015625)"/>
      <path id="ArialMT-43" d="M 3763 1606 
L 4369 1453 
Q 4178 706 3683 314 
Q 3188 -78 2472 -78 
Q 1731 -78 1267 223 
Q 803 525 561 1097 
Q 319 1669 319 2325 
Q 319 3041 592 3573 
Q 866 4106 1370 4382 
Q 1875 4659 2481 4659 
Q 3169 4659 3637 4309 
Q 4106 3959 4291 3325 
L 3694 3184 
Q 3534 3684 3231 3912 
Q 2928 4141 2469 4141 
Q 1941 4141 1586 3887 
Q 1231 3634 1087 3207 
Q 944 2781 944 2328 
Q 944 1744 1114 1308 
Q 1284 872 1643 656 
Q 2003 441 2422 441 
Q 2931 441 3284 734 
Q 3638 1028 3763 1606 
z
" transform="scale(0.015625)"/>
      <path id="ArialMT-6c" d="M 409 0 
L 409 4581 
L 972 4581 
L 972 0 
L 409 0 
z
" transform="scale(0.015625)"/>
     </defs>
     <use xlink:href="#DejaVuSans-Oblique-45" transform="translate(0 0.09375)"/>
     <use xlink:href="#DejaVuSans-72" transform="translate(63.183594 -16.3125) scale(0.7)"/>
     <use xlink:href="#DejaVuSans-61" transform="translate(91.962891 -16.3125) scale(0.7)"/>
     <use xlink:href="#DejaVuSans-77" transform="translate(134.858398 -16.3125) scale(0.7)"/>
     <use xlink:href="#ArialMT-20" transform="translate(194.84375 0.09375)"/>
     <use xlink:href="#ArialMT-2f" transform="translate(222.626953 0.09375)"/>
     <use xlink:href="#ArialMT-20" transform="translate(250.410156 0.09375)"/>
     <use xlink:href="#ArialMT-56" transform="translate(278.193359 0.09375)"/>
     <use xlink:href="#ArialMT-20" transform="translate(344.892578 0.09375)"/>
     <use xlink:href="#ArialMT-76" transform="translate(372.675781 0.09375)"/>
     <use xlink:href="#ArialMT-73" transform="translate(422.675781 0.09375)"/>
     <use xlink:href="#ArialMT-2e" transform="translate(472.675781 0.09375)"/>
     <use xlink:href="#ArialMT-20" transform="translate(500.458984 0.09375)"/>
     <use xlink:href="#ArialMT-41" transform="translate(528.242188 0.09375)"/>
     <use xlink:href="#ArialMT-67" transform="translate(594.941406 0.09375)"/>
     <use xlink:href="#ArialMT-2f" transform="translate(650.556641 0.09375)"/>
     <use xlink:href="#ArialMT-41" transform="translate(678.339844 0.09375)"/>
     <use xlink:href="#ArialMT-67" transform="translate(745.039062 0.09375)"/>
     <use xlink:href="#ArialMT-43" transform="translate(800.654297 0.09375)"/>
     <use xlink:href="#ArialMT-6c" transform="translate(872.871094 0.09375)"/>
    </g>
   </g>
   <g id="text_12">
    <!-- $\rightarrow$ -->
    <g transform="translate(87.43232 121.686727) scale(0.08 -0.08)">
     <use xlink:href="#DejaVuSans-2192" transform="translate(19.482422 0.265625)"/>
    </g>
   </g>
   <g id="text_13">
    <!-- $E_\mathrm{compensated}$ / V vs. RHE -->
    <g style="fill: #1f77b4" transform="translate(99.27232 121.412352) scale(0.08 -0.08)">
     <defs>
      <path id="DejaVuSans-63" d="M 3122 3366 
L 3122 2828 
Q 2878 2963 2633 3030 
Q 2388 3097 2138 3097 
Q 1578 3097 1268 2742 
Q 959 2388 959 1747 
Q 959 1106 1268 751 
Q 1578 397 2138 397 
Q 2388 397 2633 464 
Q 2878 531 3122 666 
L 3122 134 
Q 2881 22 2623 -34 
Q 2366 -91 2075 -91 
Q 1284 -91 818 406 
Q 353 903 353 1747 
Q 353 2603 823 3093 
Q 1294 3584 2113 3584 
Q 2378 3584 2631 3529 
Q 2884 3475 3122 3366 
z
" transform="scale(0.015625)"/>
      <path id="DejaVuSans-6d" d="M 3328 2828 
Q 3544 3216 3844 3400 
Q 4144 3584 4550 3584 
Q 5097 3584 5394 3201 
Q 5691 2819 5691 2113 
L 5691 0 
L 5113 0 
L 5113 2094 
Q 5113 2597 4934 2840 
Q 4756 3084 4391 3084 
Q 3944 3084 3684 2787 
Q 3425 2491 3425 1978 
L 3425 0 
L 2847 0 
L 2847 2094 
Q 2847 2600 2669 2842 
Q 2491 3084 2119 3084 
Q 1678 3084 1418 2786 
Q 1159 2488 1159 1978 
L 1159 0 
L 581 0 
L 581 3500 
L 1159 3500 
L 1159 2956 
Q 1356 3278 1631 3431 
Q 1906 3584 2284 3584 
Q 2666 3584 2933 3390 
Q 3200 3197 3328 2828 
z
" transform="scale(0.015625)"/>
      <path id="DejaVuSans-70" d="M 1159 525 
L 1159 -1331 
L 581 -1331 
L 581 3500 
L 1159 3500 
L 1159 2969 
Q 1341 3281 1617 3432 
Q 1894 3584 2278 3584 
Q 2916 3584 3314 3078 
Q 3713 2572 3713 1747 
Q 3713 922 3314 415 
Q 2916 -91 2278 -91 
Q 1894 -91 1617 61 
Q 1341 213 1159 525 
z
M 3116 1747 
Q 3116 2381 2855 2742 
Q 2594 3103 2138 3103 
Q 1681 3103 1420 2742 
Q 1159 2381 1159 1747 
Q 1159 1113 1420 752 
Q 1681 391 2138 391 
Q 2594 391 2855 752 
Q 3116 1113 3116 1747 
z
" transform="scale(0.015625)"/>
      <path id="DejaVuSans-6e" d="M 3513 2113 
L 3513 0 
L 2938 0 
L 2938 2094 
Q 2938 2591 2744 2837 
Q 2550 3084 2163 3084 
Q 1697 3084 1428 2787 
Q 1159 2491 1159 1978 
L 1159 0 
L 581 0 
L 581 3500 
L 1159 3500 
L 1159 2956 
Q 1366 3272 1645 3428 
Q 1925 3584 2291 3584 
Q 2894 3584 3203 3211 
Q 3513 2838 3513 2113 
z
" transform="scale(0.015625)"/>
      <path id="DejaVuSans-73" d="M 2834 3397 
L 2834 2853 
Q 2591 2978 2328 3040 
Q 2066 3103 1784 3103 
Q 1356 3103 1142 2972 
Q 928 2841 928 2578 
Q 928 2378 1081 2264 
Q 1234 2150 1697 2047 
L 1894 2003 
Q 2506 1872 2764 1633 
Q 3022 1394 3022 966 
Q 3022 478 2636 193 
Q 2250 -91 1575 -91 
Q 1294 -91 989 -36 
Q 684 19 347 128 
L 347 722 
Q 666 556 975 473 
Q 1284 391 1588 391 
Q 1994 391 2212 530 
Q 2431 669 2431 922 
Q 2431 1156 2273 1281 
Q 2116 1406 1581 1522 
L 1381 1569 
Q 847 1681 609 1914 
Q 372 2147 372 2553 
Q 372 3047 722 3315 
Q 1072 3584 1716 3584 
Q 2034 3584 2315 3537 
Q 2597 3491 2834 3397 
z
" transform="scale(0.015625)"/>
      <path id="DejaVuSans-74" d="M 1172 4494 
L 1172 3500 
L 2356 3500 
L 2356 3053 
L 1172 3053 
L 1172 1153 
Q 1172 725 1289 603 
Q 1406 481 1766 481 
L 2356 481 
L 2356 0 
L 1766 0 
Q 1100 0 847 248 
Q 594 497 594 1153 
L 594 3053 
L 172 3053 
L 172 3500 
L 594 3500 
L 594 4494 
L 1172 4494 
z
" transform="scale(0.015625)"/>
      <path id="DejaVuSans-64" d="M 2906 2969 
L 2906 4863 
L 3481 4863 
L 3481 0 
L 2906 0 
L 2906 525 
Q 2725 213 2448 61 
Q 2172 -91 1784 -91 
Q 1150 -91 751 415 
Q 353 922 353 1747 
Q 353 2572 751 3078 
Q 1150 3584 1784 3584 
Q 2172 3584 2448 3432 
Q 2725 3281 2906 2969 
z
M 947 1747 
Q 947 1113 1208 752 
Q 1469 391 1925 391 
Q 2381 391 2643 752 
Q 2906 1113 2906 1747 
Q 2906 2381 2643 2742 
Q 2381 3103 1925 3103 
Q 1469 3103 1208 2742 
Q 947 2381 947 1747 
z
" transform="scale(0.015625)"/>
      <path id="ArialMT-52" d="M 503 0 
L 503 4581 
L 2534 4581 
Q 3147 4581 3465 4457 
Q 3784 4334 3975 4021 
Q 4166 3709 4166 3331 
Q 4166 2844 3850 2509 
Q 3534 2175 2875 2084 
Q 3116 1969 3241 1856 
Q 3506 1613 3744 1247 
L 4541 0 
L 3778 0 
L 3172 953 
Q 2906 1366 2734 1584 
Q 2563 1803 2427 1890 
Q 2291 1978 2150 2013 
Q 2047 2034 1813 2034 
L 1109 2034 
L 1109 0 
L 503 0 
z
M 1109 2559 
L 2413 2559 
Q 2828 2559 3062 2645 
Q 3297 2731 3419 2920 
Q 3541 3109 3541 3331 
Q 3541 3656 3305 3865 
Q 3069 4075 2559 4075 
L 1109 4075 
L 1109 2559 
z
" transform="scale(0.015625)"/>
      <path id="ArialMT-48" d="M 513 0 
L 513 4581 
L 1119 4581 
L 1119 2700 
L 3500 2700 
L 3500 4581 
L 4106 4581 
L 4106 0 
L 3500 0 
L 3500 2159 
L 1119 2159 
L 1119 0 
L 513 0 
z
" transform="scale(0.015625)"/>
      <path id="ArialMT-45" d="M 506 0 
L 506 4581 
L 3819 4581 
L 3819 4041 
L 1113 4041 
L 1113 2638 
L 3647 2638 
L 3647 2100 
L 1113 2100 
L 1113 541 
L 3925 541 
L 3925 0 
L 506 0 
z
" transform="scale(0.015625)"/>
     </defs>
     <use xlink:href="#DejaVuSans-Oblique-45" transform="translate(0 0.09375)"/>
     <use xlink:href="#DejaVuSans-63" transform="translate(63.183594 -16.3125) scale(0.7)"/>
     <use xlink:href="#DejaVuSans-6f" transform="translate(101.669922 -16.3125) scale(0.7)"/>
     <use xlink:href="#DejaVuSans-6d" transform="translate(144.49707 -16.3125) scale(0.7)"/>
     <use xlink:href="#DejaVuSans-70" transform="translate(212.685547 -16.3125) scale(0.7)"/>
     <use xlink:href="#DejaVuSans-65" transform="translate(257.119141 -16.3125) scale(0.7)"/>
     <use xlink:href="#DejaVuSans-6e" transform="translate(300.185547 -16.3125) scale(0.7)"/>
     <use xlink:href="#DejaVuSans-73" transform="translate(344.550781 -16.3125) scale(0.7)"/>
     <use xlink:href="#DejaVuSans-61" transform="translate(381.020508 -16.3125) scale(0.7)"/>
     <use xlink:href="#DejaVuSans-74" transform="translate(423.916016 -16.3125) scale(0.7)"/>
     <use xlink:href="#DejaVuSans-65" transform="translate(451.362305 -16.3125) scale(0.7)"/>
     <use xlink:href="#DejaVuSans-64" transform="translate(494.428711 -16.3125) scale(0.7)"/>
     <use xlink:href="#ArialMT-20" transform="translate(541.59668 0.09375)"/>
     <use xlink:href="#ArialMT-2f" transform="translate(569.379883 0.09375)"/>
     <use xlink:href="#ArialMT-20" transform="translate(597.163086 0.09375)"/>
     <use xlink:href="#ArialMT-56" transform="translate(624.946289 0.09375)"/>
     <use xlink:href="#ArialMT-20" transform="translate(691.645508 0.09375)"/>
     <use xlink:href="#ArialMT-76" transform="translate(719.428711 0.09375)"/>
     <use xlink:href="#ArialMT-73" transform="translate(769.428711 0.09375)"/>
     <use xlink:href="#ArialMT-2e" transform="translate(819.428711 0.09375)"/>
     <use xlink:href="#ArialMT-20" transform="translate(847.211914 0.09375)"/>
     <use xlink:href="#ArialMT-52" transform="translate(874.995117 0.09375)"/>
     <use xlink:href="#ArialMT-48" transform="translate(947.211914 0.09375)"/>
     <use xlink:href="#ArialMT-45" transform="translate(1019.428711 0.09375)"/>
    </g>
   </g>
   <g id="legend_1">
    <g id="patch_7">
     <path d="M 108.970896 97.50016 
L 181.32224 97.50016 
Q 182.72512 97.50016 182.72512 96.09728 
L 182.72512 76.954544 
Q 182.72512 75.551664 181.32224 75.551664 
L 108.970896 75.551664 
Q 107.568016 75.551664 107.568016 76.954544 
L 107.568016 96.09728 
Q 107.568016 97.50016 108.970896 97.50016 
L 108.970896 97.50016 
z
" style="fill: none; opacity: 0"/>
    </g>
    <g id="line2d_65">
     <path d="M 110.373776 80.92316 
L 117.388176 80.92316 
L 124.402576 80.92316 
" style="fill: none; stroke: #1f77b4; stroke-width: 0.6576; stroke-linecap: square"/>
    </g>
    <g id="text_14">
     <!-- normalized data -->
     <g transform="translate(130.014096 83.3782) scale(0.070144 -0.070144)">
      <defs>
       <path id="ArialMT-6e" d="M 422 0 
L 422 3319 
L 928 3319 
L 928 2847 
Q 1294 3394 1984 3394 
Q 2284 3394 2536 3286 
Q 2788 3178 2913 3003 
Q 3038 2828 3088 2588 
Q 3119 2431 3119 2041 
L 3119 0 
L 2556 0 
L 2556 2019 
Q 2556 2363 2490 2533 
Q 2425 2703 2258 2804 
Q 2091 2906 1866 2906 
Q 1506 2906 1245 2678 
Q 984 2450 984 1813 
L 984 0 
L 422 0 
z
" transform="scale(0.015625)"/>
       <path id="ArialMT-6f" d="M 213 1659 
Q 213 2581 725 3025 
Q 1153 3394 1769 3394 
Q 2453 3394 2887 2945 
Q 3322 2497 3322 1706 
Q 3322 1066 3130 698 
Q 2938 331 2570 128 
Q 2203 -75 1769 -75 
Q 1072 -75 642 372 
Q 213 819 213 1659 
z
M 791 1659 
Q 791 1022 1069 705 
Q 1347 388 1769 388 
Q 2188 388 2466 706 
Q 2744 1025 2744 1678 
Q 2744 2294 2464 2611 
Q 2184 2928 1769 2928 
Q 1347 2928 1069 2612 
Q 791 2297 791 1659 
z
" transform="scale(0.015625)"/>
       <path id="ArialMT-72" d="M 416 0 
L 416 3319 
L 922 3319 
L 922 2816 
Q 1116 3169 1280 3281 
Q 1444 3394 1641 3394 
Q 1925 3394 2219 3213 
L 2025 2691 
Q 1819 2813 1613 2813 
Q 1428 2813 1281 2702 
Q 1134 2591 1072 2394 
Q 978 2094 978 1738 
L 978 0 
L 416 0 
z
" transform="scale(0.015625)"/>
       <path id="ArialMT-61" d="M 2588 409 
Q 2275 144 1986 34 
Q 1697 -75 1366 -75 
Q 819 -75 525 192 
Q 231 459 231 875 
Q 231 1119 342 1320 
Q 453 1522 633 1644 
Q 813 1766 1038 1828 
Q 1203 1872 1538 1913 
Q 2219 1994 2541 2106 
Q 2544 2222 2544 2253 
Q 2544 2597 2384 2738 
Q 2169 2928 1744 2928 
Q 1347 2928 1158 2789 
Q 969 2650 878 2297 
L 328 2372 
Q 403 2725 575 2942 
Q 747 3159 1072 3276 
Q 1397 3394 1825 3394 
Q 2250 3394 2515 3294 
Q 2781 3194 2906 3042 
Q 3031 2891 3081 2659 
Q 3109 2516 3109 2141 
L 3109 1391 
Q 3109 606 3145 398 
Q 3181 191 3288 0 
L 2700 0 
Q 2613 175 2588 409 
z
M 2541 1666 
Q 2234 1541 1622 1453 
Q 1275 1403 1131 1340 
Q 988 1278 909 1158 
Q 831 1038 831 891 
Q 831 666 1001 516 
Q 1172 366 1500 366 
Q 1825 366 2078 508 
Q 2331 650 2450 897 
Q 2541 1088 2541 1459 
L 2541 1666 
z
" transform="scale(0.015625)"/>
       <path id="ArialMT-69" d="M 425 3934 
L 425 4581 
L 988 4581 
L 988 3934 
L 425 3934 
z
M 425 0 
L 425 3319 
L 988 3319 
L 988 0 
L 425 0 
z
" transform="scale(0.015625)"/>
       <path id="ArialMT-7a" d="M 125 0 
L 125 456 
L 2238 2881 
Q 1878 2863 1603 2863 
L 250 2863 
L 250 3319 
L 2963 3319 
L 2963 2947 
L 1166 841 
L 819 456 
Q 1197 484 1528 484 
L 3063 484 
L 3063 0 
L 125 0 
z
" transform="scale(0.015625)"/>
       <path id="ArialMT-65" d="M 2694 1069 
L 3275 997 
Q 3138 488 2766 206 
Q 2394 -75 1816 -75 
Q 1088 -75 661 373 
Q 234 822 234 1631 
Q 234 2469 665 2931 
Q 1097 3394 1784 3394 
Q 2450 3394 2872 2941 
Q 3294 2488 3294 1666 
Q 3294 1616 3291 1516 
L 816 1516 
Q 847 969 1125 678 
Q 1403 388 1819 388 
Q 2128 388 2347 550 
Q 2566 713 2694 1069 
z
M 847 1978 
L 2700 1978 
Q 2663 2397 2488 2606 
Q 2219 2931 1791 2931 
Q 1403 2931 1139 2672 
Q 875 2413 847 1978 
z
" transform="scale(0.015625)"/>
       <path id="ArialMT-64" d="M 2575 0 
L 2575 419 
Q 2259 -75 1647 -75 
Q 1250 -75 917 144 
Q 584 363 401 755 
Q 219 1147 219 1656 
Q 219 2153 384 2558 
Q 550 2963 881 3178 
Q 1213 3394 1622 3394 
Q 1922 3394 2156 3267 
Q 2391 3141 2538 2938 
L 2538 4581 
L 3097 4581 
L 3097 0 
L 2575 0 
z
M 797 1656 
Q 797 1019 1065 703 
Q 1334 388 1700 388 
Q 2069 388 2326 689 
Q 2584 991 2584 1609 
Q 2584 2291 2321 2609 
Q 2059 2928 1675 2928 
Q 1300 2928 1048 2622 
Q 797 2316 797 1656 
z
" transform="scale(0.015625)"/>
       <path id="ArialMT-74" d="M 1650 503 
L 1731 6 
Q 1494 -44 1306 -44 
Q 1000 -44 831 53 
Q 663 150 594 308 
Q 525 466 525 972 
L 525 2881 
L 113 2881 
L 113 3319 
L 525 3319 
L 525 4141 
L 1084 4478 
L 1084 3319 
L 1650 3319 
L 1650 2881 
L 1084 2881 
L 1084 941 
Q 1084 700 1114 631 
Q 1144 563 1211 522 
Q 1278 481 1403 481 
Q 1497 481 1650 503 
z
" transform="scale(0.015625)"/>
      </defs>
      <use xlink:href="#ArialMT-6e"/>
      <use xlink:href="#ArialMT-6f" x="55.615234"/>
      <use xlink:href="#ArialMT-72" x="111.230469"/>
      <use xlink:href="#ArialMT-6d" x="144.53125"/>
      <use xlink:href="#ArialMT-61" x="227.832031"/>
      <use xlink:href="#ArialMT-6c" x="283.447266"/>
      <use xlink:href="#ArialMT-69" x="305.664062"/>
      <use xlink:href="#ArialMT-7a" x="327.880859"/>
      <use xlink:href="#ArialMT-65" x="377.880859"/>
      <use xlink:href="#ArialMT-64" x="433.496094"/>
      <use xlink:href="#ArialMT-20" x="489.111328"/>
      <use xlink:href="#ArialMT-64" x="516.894531"/>
      <use xlink:href="#ArialMT-61" x="572.509766"/>
      <use xlink:href="#ArialMT-74" x="628.125"/>
      <use xlink:href="#ArialMT-61" x="655.908203"/>
     </g>
    </g>
    <g id="line2d_66">
     <path d="M 110.373776 90.845248 
L 117.388176 90.845248 
L 124.402576 90.845248 
" style="fill: none; stroke: #7f7f7f; stroke-width: 0.6576; stroke-linecap: square"/>
    </g>
    <g id="text_15">
     <!-- raw data -->
     <g transform="translate(130.014096 93.300288) scale(0.070144 -0.070144)">
      <defs>
       <path id="ArialMT-77" d="M 1034 0 
L 19 3319 
L 600 3319 
L 1128 1403 
L 1325 691 
Q 1338 744 1497 1375 
L 2025 3319 
L 2603 3319 
L 3100 1394 
L 3266 759 
L 3456 1400 
L 4025 3319 
L 4572 3319 
L 3534 0 
L 2950 0 
L 2422 1988 
L 2294 2553 
L 1622 0 
L 1034 0 
z
" transform="scale(0.015625)"/>
      </defs>
      <use xlink:href="#ArialMT-72"/>
      <use xlink:href="#ArialMT-61" x="33.300781"/>
      <use xlink:href="#ArialMT-77" x="88.916016"/>
      <use xlink:href="#ArialMT-20" x="161.132812"/>
      <use xlink:href="#ArialMT-64" x="188.916016"/>
      <use xlink:href="#ArialMT-61" x="244.53125"/>
      <use xlink:href="#ArialMT-74" x="300.146484"/>
      <use xlink:href="#ArialMT-61" x="327.929688"/>
     </g>
    </g>
   </g>
  </g>
 </g>
 <defs>
  <clipPath id="pbff2fe6604">
   <rect x="34.72128" y="6.31296" width="151.51104" height="94.6944"/>
  </clipPath>
 </defs>
</svg>
