<?xml version="1.0" encoding="utf-8" standalone="no"?>
<!DOCTYPE svg PUBLIC "-//W3C//DTD SVG 1.1//EN"
  "http://www.w3.org/Graphics/SVG/1.1/DTD/svg11.dtd">
<svg xmlns:xlink="http://www.w3.org/1999/xlink" width="75.75552pt" height="50.50368pt" viewBox="0 0 75.75552 50.50368" xmlns="http://www.w3.org/2000/svg" version="1.1">
 <metadata>
  <rdf:RDF xmlns:dc="http://purl.org/dc/elements/1.1/" xmlns:cc="http://creativecommons.org/ns#" xmlns:rdf="http://www.w3.org/1999/02/22-rdf-syntax-ns#">
   <cc:Work>
    <dc:type rdf:resource="http://purl.org/dc/dcmitype/StillImage"/>
    <dc:date>2023-12-07T14:50:25.483539</dc:date>
    <dc:format>image/svg+xml</dc:format>
    <dc:creator>
     <cc:Agent>
      <dc:title>Matplotlib v3.6.2, https://matplotlib.org/</dc:title>
     </cc:Agent>
    </dc:creator>
   </cc:Work>
  </rdf:RDF>
 </metadata>
 <defs>
  <style type="text/css">*{stroke-linejoin: round; stroke-linecap: butt}</style>
 </defs>
 <g id="figure_1">
  <g id="patch_1">
   <path d="M 0 50.50368 
L 75.75552 50.50368 
L 75.75552 0 
L 0 0 
z
" style="fill: #ffffff"/>
  </g>
  <g id="axes_1">
   <g id="patch_2">
    <path d="M 12.62592 37.87776 
L 69.44256 37.87776 
L 69.44256 6.31296 
L 12.62592 6.31296 
z
" style="fill: #ffffff"/>
   </g>
   <g id="matplotlib.axis_1">
    <g id="xtick_1">
     <g id="line2d_1">
      <defs>
       <path id="mee33022a7f" d="M 0 0 
L 0 -2.54272 
" style="stroke: #000000; stroke-width: 0.6576"/>
      </defs>
      <g>
       <use xlink:href="#mee33022a7f" x="15.285569" y="37.87776" style="stroke: #000000; stroke-width: 0.6576"/>
      </g>
     </g>
     <g id="line2d_2">
      <defs>
       <path id="m0567763295" d="M 0 0 
L 0 2.54272 
" style="stroke: #000000; stroke-width: 0.6576"/>
      </defs>
      <g>
       <use xlink:href="#m0567763295" x="15.285569" y="6.31296" style="stroke: #000000; stroke-width: 0.6576"/>
      </g>
     </g>
    </g>
    <g id="xtick_2">
     <g id="line2d_3">
      <g>
       <use xlink:href="#mee33022a7f" x="56.460054" y="37.87776" style="stroke: #000000; stroke-width: 0.6576"/>
      </g>
     </g>
     <g id="line2d_4">
      <g>
       <use xlink:href="#m0567763295" x="56.460054" y="6.31296" style="stroke: #000000; stroke-width: 0.6576"/>
      </g>
     </g>
    </g>
    <g id="xtick_3">
     <g id="line2d_5">
      <defs>
       <path id="mef8b6114a0" d="M 0 0 
L 0 -1.3152 
" style="stroke: #000000; stroke-width: 0.6576"/>
      </defs>
      <g>
       <use xlink:href="#mef8b6114a0" x="23.520466" y="37.87776" style="stroke: #000000; stroke-width: 0.6576"/>
      </g>
     </g>
     <g id="line2d_6">
      <defs>
       <path id="m7b10e3b855" d="M 0 0 
L 0 1.3152 
" style="stroke: #000000; stroke-width: 0.6576"/>
      </defs>
      <g>
       <use xlink:href="#m7b10e3b855" x="23.520466" y="6.31296" style="stroke: #000000; stroke-width: 0.6576"/>
      </g>
     </g>
    </g>
    <g id="xtick_4">
     <g id="line2d_7">
      <g>
       <use xlink:href="#mef8b6114a0" x="31.755363" y="37.87776" style="stroke: #000000; stroke-width: 0.6576"/>
      </g>
     </g>
     <g id="line2d_8">
      <g>
       <use xlink:href="#m7b10e3b855" x="31.755363" y="6.31296" style="stroke: #000000; stroke-width: 0.6576"/>
      </g>
     </g>
    </g>
    <g id="xtick_5">
     <g id="line2d_9">
      <g>
       <use xlink:href="#mef8b6114a0" x="39.99026" y="37.87776" style="stroke: #000000; stroke-width: 0.6576"/>
      </g>
     </g>
     <g id="line2d_10">
      <g>
       <use xlink:href="#m7b10e3b855" x="39.99026" y="6.31296" style="stroke: #000000; stroke-width: 0.6576"/>
      </g>
     </g>
    </g>
    <g id="xtick_6">
     <g id="line2d_11">
      <g>
       <use xlink:href="#mef8b6114a0" x="48.225157" y="37.87776" style="stroke: #000000; stroke-width: 0.6576"/>
      </g>
     </g>
     <g id="line2d_12">
      <g>
       <use xlink:href="#m7b10e3b855" x="48.225157" y="6.31296" style="stroke: #000000; stroke-width: 0.6576"/>
      </g>
     </g>
    </g>
    <g id="xtick_7">
     <g id="line2d_13">
      <g>
       <use xlink:href="#mef8b6114a0" x="64.694951" y="37.87776" style="stroke: #000000; stroke-width: 0.6576"/>
      </g>
     </g>
     <g id="line2d_14">
      <g>
       <use xlink:href="#m7b10e3b855" x="64.694951" y="6.31296" style="stroke: #000000; stroke-width: 0.6576"/>
      </g>
     </g>
    </g>
    <g id="text_1">
     <!-- Potential -->
     <g transform="translate(25.680308 47.526133) scale(0.078912 -0.078912)">
      <defs>
       <path id="ArialMT-50" d="M 494 0 
L 494 4581 
L 2222 4581 
Q 2678 4581 2919 4538 
Q 3256 4481 3484 4323 
Q 3713 4166 3852 3881 
Q 3991 3597 3991 3256 
Q 3991 2672 3619 2267 
Q 3247 1863 2275 1863 
L 1100 1863 
L 1100 0 
L 494 0 
z
M 1100 2403 
L 2284 2403 
Q 2872 2403 3119 2622 
Q 3366 2841 3366 3238 
Q 3366 3525 3220 3729 
Q 3075 3934 2838 4000 
Q 2684 4041 2272 4041 
L 1100 4041 
L 1100 2403 
z
" transform="scale(0.015625)"/>
       <path id="ArialMT-6f" d="M 213 1659 
Q 213 2581 725 3025 
Q 1153 3394 1769 3394 
Q 2453 3394 2887 2945 
Q 3322 2497 3322 1706 
Q 3322 1066 3130 698 
Q 2938 331 2570 128 
Q 2203 -75 1769 -75 
Q 1072 -75 642 372 
Q 213 819 213 1659 
z
M 791 1659 
Q 791 1022 1069 705 
Q 1347 388 1769 388 
Q 2188 388 2466 706 
Q 2744 1025 2744 1678 
Q 2744 2294 2464 2611 
Q 2184 2928 1769 2928 
Q 1347 2928 1069 2612 
Q 791 2297 791 1659 
z
" transform="scale(0.015625)"/>
       <path id="ArialMT-74" d="M 1650 503 
L 1731 6 
Q 1494 -44 1306 -44 
Q 1000 -44 831 53 
Q 663 150 594 308 
Q 525 466 525 972 
L 525 2881 
L 113 2881 
L 113 3319 
L 525 3319 
L 525 4141 
L 1084 4478 
L 1084 3319 
L 1650 3319 
L 1650 2881 
L 1084 2881 
L 1084 941 
Q 1084 700 1114 631 
Q 1144 563 1211 522 
Q 1278 481 1403 481 
Q 1497 481 1650 503 
z
" transform="scale(0.015625)"/>
       <path id="ArialMT-65" d="M 2694 1069 
L 3275 997 
Q 3138 488 2766 206 
Q 2394 -75 1816 -75 
Q 1088 -75 661 373 
Q 234 822 234 1631 
Q 234 2469 665 2931 
Q 1097 3394 1784 3394 
Q 2450 3394 2872 2941 
Q 3294 2488 3294 1666 
Q 3294 1616 3291 1516 
L 816 1516 
Q 847 969 1125 678 
Q 1403 388 1819 388 
Q 2128 388 2347 550 
Q 2566 713 2694 1069 
z
M 847 1978 
L 2700 1978 
Q 2663 2397 2488 2606 
Q 2219 2931 1791 2931 
Q 1403 2931 1139 2672 
Q 875 2413 847 1978 
z
" transform="scale(0.015625)"/>
       <path id="ArialMT-6e" d="M 422 0 
L 422 3319 
L 928 3319 
L 928 2847 
Q 1294 3394 1984 3394 
Q 2284 3394 2536 3286 
Q 2788 3178 2913 3003 
Q 3038 2828 3088 2588 
Q 3119 2431 3119 2041 
L 3119 0 
L 2556 0 
L 2556 2019 
Q 2556 2363 2490 2533 
Q 2425 2703 2258 2804 
Q 2091 2906 1866 2906 
Q 1506 2906 1245 2678 
Q 984 2450 984 1813 
L 984 0 
L 422 0 
z
" transform="scale(0.015625)"/>
       <path id="ArialMT-69" d="M 425 3934 
L 425 4581 
L 988 4581 
L 988 3934 
L 425 3934 
z
M 425 0 
L 425 3319 
L 988 3319 
L 988 0 
L 425 0 
z
" transform="scale(0.015625)"/>
       <path id="ArialMT-61" d="M 2588 409 
Q 2275 144 1986 34 
Q 1697 -75 1366 -75 
Q 819 -75 525 192 
Q 231 459 231 875 
Q 231 1119 342 1320 
Q 453 1522 633 1644 
Q 813 1766 1038 1828 
Q 1203 1872 1538 1913 
Q 2219 1994 2541 2106 
Q 2544 2222 2544 2253 
Q 2544 2597 2384 2738 
Q 2169 2928 1744 2928 
Q 1347 2928 1158 2789 
Q 969 2650 878 2297 
L 328 2372 
Q 403 2725 575 2942 
Q 747 3159 1072 3276 
Q 1397 3394 1825 3394 
Q 2250 3394 2515 3294 
Q 2781 3194 2906 3042 
Q 3031 2891 3081 2659 
Q 3109 2516 3109 2141 
L 3109 1391 
Q 3109 606 3145 398 
Q 3181 191 3288 0 
L 2700 0 
Q 2613 175 2588 409 
z
M 2541 1666 
Q 2234 1541 1622 1453 
Q 1275 1403 1131 1340 
Q 988 1278 909 1158 
Q 831 1038 831 891 
Q 831 666 1001 516 
Q 1172 366 1500 366 
Q 1825 366 2078 508 
Q 2331 650 2450 897 
Q 2541 1088 2541 1459 
L 2541 1666 
z
" transform="scale(0.015625)"/>
       <path id="ArialMT-6c" d="M 409 0 
L 409 4581 
L 972 4581 
L 972 0 
L 409 0 
z
" transform="scale(0.015625)"/>
      </defs>
      <use xlink:href="#ArialMT-50"/>
      <use xlink:href="#ArialMT-6f" x="66.699219"/>
      <use xlink:href="#ArialMT-74" x="122.314453"/>
      <use xlink:href="#ArialMT-65" x="150.097656"/>
      <use xlink:href="#ArialMT-6e" x="205.712891"/>
      <use xlink:href="#ArialMT-74" x="261.328125"/>
      <use xlink:href="#ArialMT-69" x="289.111328"/>
      <use xlink:href="#ArialMT-61" x="311.328125"/>
      <use xlink:href="#ArialMT-6c" x="366.943359"/>
     </g>
    </g>
   </g>
   <g id="matplotlib.axis_2">
    <g id="ytick_1">
     <g id="line2d_15">
      <defs>
       <path id="m8eecfee5fb" d="M 0 0 
L 2.54272 0 
" style="stroke: #000000; stroke-width: 0.6576"/>
      </defs>
      <g>
       <use xlink:href="#m8eecfee5fb" x="12.62592" y="35.504819" style="stroke: #000000; stroke-width: 0.6576"/>
      </g>
     </g>
     <g id="line2d_16">
      <defs>
       <path id="m2037e963c6" d="M 0 0 
L -2.54272 0 
" style="stroke: #000000; stroke-width: 0.6576"/>
      </defs>
      <g>
       <use xlink:href="#m2037e963c6" x="69.44256" y="35.504819" style="stroke: #000000; stroke-width: 0.6576"/>
      </g>
     </g>
    </g>
    <g id="ytick_2">
     <g id="line2d_17">
      <g>
       <use xlink:href="#m8eecfee5fb" x="12.62592" y="19.761925" style="stroke: #000000; stroke-width: 0.6576"/>
      </g>
     </g>
     <g id="line2d_18">
      <g>
       <use xlink:href="#m2037e963c6" x="69.44256" y="19.761925" style="stroke: #000000; stroke-width: 0.6576"/>
      </g>
     </g>
    </g>
    <g id="ytick_3">
     <g id="line2d_19">
      <defs>
       <path id="m277853903d" d="M 0 0 
L 1.3152 0 
" style="stroke: #000000; stroke-width: 0.6576"/>
      </defs>
      <g>
       <use xlink:href="#m277853903d" x="12.62592" y="32.35624" style="stroke: #000000; stroke-width: 0.6576"/>
      </g>
     </g>
     <g id="line2d_20">
      <defs>
       <path id="m84d760874a" d="M 0 0 
L -1.3152 0 
" style="stroke: #000000; stroke-width: 0.6576"/>
      </defs>
      <g>
       <use xlink:href="#m84d760874a" x="69.44256" y="32.35624" style="stroke: #000000; stroke-width: 0.6576"/>
      </g>
     </g>
    </g>
    <g id="ytick_4">
     <g id="line2d_21">
      <g>
       <use xlink:href="#m277853903d" x="12.62592" y="29.207661" style="stroke: #000000; stroke-width: 0.6576"/>
      </g>
     </g>
     <g id="line2d_22">
      <g>
       <use xlink:href="#m84d760874a" x="69.44256" y="29.207661" style="stroke: #000000; stroke-width: 0.6576"/>
      </g>
     </g>
    </g>
    <g id="ytick_5">
     <g id="line2d_23">
      <g>
       <use xlink:href="#m277853903d" x="12.62592" y="26.059082" style="stroke: #000000; stroke-width: 0.6576"/>
      </g>
     </g>
     <g id="line2d_24">
      <g>
       <use xlink:href="#m84d760874a" x="69.44256" y="26.059082" style="stroke: #000000; stroke-width: 0.6576"/>
      </g>
     </g>
    </g>
    <g id="ytick_6">
     <g id="line2d_25">
      <g>
       <use xlink:href="#m277853903d" x="12.62592" y="22.910503" style="stroke: #000000; stroke-width: 0.6576"/>
      </g>
     </g>
     <g id="line2d_26">
      <g>
       <use xlink:href="#m84d760874a" x="69.44256" y="22.910503" style="stroke: #000000; stroke-width: 0.6576"/>
      </g>
     </g>
    </g>
    <g id="ytick_7">
     <g id="line2d_27">
      <g>
       <use xlink:href="#m277853903d" x="12.62592" y="16.613346" style="stroke: #000000; stroke-width: 0.6576"/>
      </g>
     </g>
     <g id="line2d_28">
      <g>
       <use xlink:href="#m84d760874a" x="69.44256" y="16.613346" style="stroke: #000000; stroke-width: 0.6576"/>
      </g>
     </g>
    </g>
    <g id="ytick_8">
     <g id="line2d_29">
      <g>
       <use xlink:href="#m277853903d" x="12.62592" y="13.464767" style="stroke: #000000; stroke-width: 0.6576"/>
      </g>
     </g>
     <g id="line2d_30">
      <g>
       <use xlink:href="#m84d760874a" x="69.44256" y="13.464767" style="stroke: #000000; stroke-width: 0.6576"/>
      </g>
     </g>
    </g>
    <g id="ytick_9">
     <g id="line2d_31">
      <g>
       <use xlink:href="#m277853903d" x="12.62592" y="10.316188" style="stroke: #000000; stroke-width: 0.6576"/>
      </g>
     </g>
     <g id="line2d_32">
      <g>
       <use xlink:href="#m84d760874a" x="69.44256" y="10.316188" style="stroke: #000000; stroke-width: 0.6576"/>
      </g>
     </g>
    </g>
    <g id="ytick_10">
     <g id="line2d_33">
      <g>
       <use xlink:href="#m277853903d" x="12.62592" y="7.167609" style="stroke: #000000; stroke-width: 0.6576"/>
      </g>
     </g>
     <g id="line2d_34">
      <g>
       <use xlink:href="#m84d760874a" x="69.44256" y="7.167609" style="stroke: #000000; stroke-width: 0.6576"/>
      </g>
     </g>
    </g>
    <g id="text_2">
     <!-- Current -->
     <g transform="translate(7.057544 35.250854) rotate(-90) scale(0.078912 -0.078912)">
      <defs>
       <path id="ArialMT-43" d="M 3763 1606 
L 4369 1453 
Q 4178 706 3683 314 
Q 3188 -78 2472 -78 
Q 1731 -78 1267 223 
Q 803 525 561 1097 
Q 319 1669 319 2325 
Q 319 3041 592 3573 
Q 866 4106 1370 4382 
Q 1875 4659 2481 4659 
Q 3169 4659 3637 4309 
Q 4106 3959 4291 3325 
L 3694 3184 
Q 3534 3684 3231 3912 
Q 2928 4141 2469 4141 
Q 1941 4141 1586 3887 
Q 1231 3634 1087 3207 
Q 944 2781 944 2328 
Q 944 1744 1114 1308 
Q 1284 872 1643 656 
Q 2003 441 2422 441 
Q 2931 441 3284 734 
Q 3638 1028 3763 1606 
z
" transform="scale(0.015625)"/>
       <path id="ArialMT-75" d="M 2597 0 
L 2597 488 
Q 2209 -75 1544 -75 
Q 1250 -75 995 37 
Q 741 150 617 320 
Q 494 491 444 738 
Q 409 903 409 1263 
L 409 3319 
L 972 3319 
L 972 1478 
Q 972 1038 1006 884 
Q 1059 663 1231 536 
Q 1403 409 1656 409 
Q 1909 409 2131 539 
Q 2353 669 2445 892 
Q 2538 1116 2538 1541 
L 2538 3319 
L 3100 3319 
L 3100 0 
L 2597 0 
z
" transform="scale(0.015625)"/>
       <path id="ArialMT-72" d="M 416 0 
L 416 3319 
L 922 3319 
L 922 2816 
Q 1116 3169 1280 3281 
Q 1444 3394 1641 3394 
Q 1925 3394 2219 3213 
L 2025 2691 
Q 1819 2813 1613 2813 
Q 1428 2813 1281 2702 
Q 1134 2591 1072 2394 
Q 978 2094 978 1738 
L 978 0 
L 416 0 
z
" transform="scale(0.015625)"/>
      </defs>
      <use xlink:href="#ArialMT-43"/>
      <use xlink:href="#ArialMT-75" x="72.216797"/>
      <use xlink:href="#ArialMT-72" x="127.832031"/>
      <use xlink:href="#ArialMT-72" x="161.132812"/>
      <use xlink:href="#ArialMT-65" x="194.433594"/>
      <use xlink:href="#ArialMT-6e" x="250.048828"/>
      <use xlink:href="#ArialMT-74" x="305.664062"/>
     </g>
    </g>
   </g>
   <g id="line2d_35">
    <path d="M 51.20335 16.196537 
L 52.10956 15.613388 
L 52.149664 15.724297 
L 52.191949 15.493254 
L 52.274422 15.518506 
L 54.002803 14.474878 
L 54.085276 14.432183 
L 54.415041 14.22115 
L 54.496896 14.216033 
L 54.743944 14.065657 
L 55.484796 13.671471 
L 55.526382 13.732396 
L 55.567681 13.496898 
L 55.6497 13.587278 
L 55.773676 13.458391 
L 55.814028 13.594819 
L 55.85582 13.413461 
L 56.020516 13.378322 
L 56.308245 13.278843 
L 56.472654 13.120296 
L 56.596919 13.067243 
L 59.149572 11.743328 
L 59.190253 11.94967 
L 59.232087 11.480233 
L 59.314229 11.680404 
L 59.644366 11.492497 
L 59.808323 11.441994 
L 59.973061 11.383587 
L 60.508371 11.09173 
L 60.837726 10.901949 
L 61.002425 10.838757 
L 61.044256 11.043887 
L 61.083496 10.59553 
L 61.166752 10.768906 
L 61.702389 10.50008 
L 64.172282 9.244459 
L 64.625202 8.986118 
L 64.70784 8.94336 
L 64.544047 11.360776 
L 64.133496 13.643165 
L 63.639362 15.374742 
L 62.77408 17.285835 
L 62.116647 18.295287 
L 60.510224 19.881137 
L 60.263301 20.050419 
L 59.686323 20.443381 
L 59.151342 20.772006 
L 58.409872 21.203109 
L 58.122763 21.341661 
L 57.422261 21.715382 
L 53.675878 23.810304 
L 52.646186 24.518845 
L 52.441054 24.653887 
L 50.711932 26.051321 
L 49.682323 26.925571 
L 48.282843 27.63057 
L 48.158043 27.626429 
L 47.459065 27.507964 
L 46.759346 27.170027 
L 45.935568 26.603566 
L 42.064507 23.906194 
L 40.911499 23.368401 
L 37.946606 22.522473 
L 36.917121 22.367578 
L 35.969943 22.25796 
L 31.317267 22.233244 
L 28.764367 22.980323 
L 27.364352 23.838689 
L 27.158356 24.009798 
L 26.829413 24.320516 
L 26.458307 24.742756 
L 26.376535 24.819959 
L 25.799433 25.594982 
L 25.717867 25.687802 
L 25.676939 25.837517 
L 25.6349 25.808204 
L 25.594508 25.649799 
L 25.552716 26.148014 
L 25.470737 25.978369 
L 25.306781 26.32997 
L 24.976726 26.764159 
L 24.935263 26.616444 
L 24.894459 26.761231 
L 24.811904 26.831901 
L 24.770648 27.218531 
L 24.729555 26.557125 
L 24.605744 27.075932 
L 24.523312 27.131677 
L 24.482014 27.036244 
L 24.318058 27.302252 
L 24.276472 27.183361 
L 24.194987 27.251308 
L 24.070846 27.433044 
L 23.947199 27.363177 
L 23.78316 27.599084 
L 23.742027 27.523187 
L 23.658442 27.599336 
L 23.576752 27.64181 
L 23.53529 27.946419 
L 23.494362 27.445166 
L 23.370839 27.934234 
L 23.329829 27.649902 
L 23.247562 27.854764 
L 23.083029 27.788046 
L 23.041319 28.164899 
L 22.959259 27.949363 
L 22.918125 28.188545 
L 22.877445 27.925513 
L 22.835858 28.133634 
L 22.794396 28.057265 
L 22.753386 28.134169 
L 22.05379 28.703243 
L 21.889092 29.05028 
L 21.847547 28.910089 
L 21.807155 29.070336 
L 21.559161 29.535665 
L 21.51811 29.273451 
L 21.477059 29.40396 
L 21.312032 29.87612 
L 21.271228 29.555028 
L 21.229601 29.928796 
L 20.447203 31.191361 
L 20.324092 31.485343 
L 20.283205 31.40814 
L 20.077209 32.008559 
L 20.035953 31.92128 
L 19.99486 32.020193 
L 19.953892 32.292828 
L 19.912799 32.02671 
L 19.871625 32.064178 
L 19.706762 32.537992 
L 19.624702 32.551704 
L 19.500849 33.075722 
L 19.459221 32.757054 
L 19.417347 32.408822 
L 19.378066 33.421546 
L 19.295512 33.092929 
L 19.253925 33.16785 
L 19.213327 32.915617 
L 19.1724 33.281356 
L 19.089886 33.191968 
L 19.048671 33.46942 
L 19.007043 33.228601 
L 18.966075 33.24658 
L 18.924777 33.562634 
L 18.842469 33.51402 
L 18.759832 33.467799 
L 18.718698 33.673496 
L 18.6774 33.442862 
L 18.636473 33.650905 
L 18.595133 33.684563 
L 18.554124 33.564712 
L 18.513443 33.649976 
L 18.347552 33.933348 
L 18.306707 33.622174 
L 18.26545 34.028671 
L 18.224522 33.706131 
L 18.142462 34.131693 
L 18.100669 33.747125 
L 18.060154 34.00767 
L 18.018279 34.126671 
L 17.977104 33.841535 
L 17.937083 34.331092 
L 17.895497 34.134747 
L 17.854116 34.277535 
L 17.813312 34.466875 
L 17.772797 34.027364 
L 17.731376 34.508751 
L 17.689624 34.432272 
L 17.648574 34.563001 
L 17.401403 35.056619 
L 17.36064 35.24736 
L 17.481158 25.101112 
L 17.769544 22.122572 
L 18.551407 18.587785 
L 18.633261 18.416661 
L 18.963193 17.328136 
L 19.045047 17.160553 
L 19.333887 16.333279 
L 19.374484 16.3761 
L 19.580481 15.892841 
L 19.868537 15.3303 
L 19.950598 15.255836 
L 20.115255 14.861949 
L 20.238901 14.93413 
L 20.445103 14.584275 
L 20.567927 14.593343 
L 20.692191 14.354366 
L 20.733407 14.449941 
L 20.77417 14.517431 
L 20.815632 14.297818 
L 20.897817 14.376123 
L 21.021505 14.22858 
L 21.062226 14.413827 
L 21.103112 14.311372 
L 21.267811 14.19837 
L 21.433208 14.214396 
L 21.803573 14.116948 
L 21.844747 14.264931 
L 21.926602 14.153408 
L 21.968765 14.090185 
L 22.010063 14.22392 
L 22.339089 14.113563 
L 22.462529 14.184768 
L 22.627351 14.0868 
L 22.667784 14.161405 
L 22.709865 13.980472 
L 22.79172 14.11265 
L 22.832812 14.121418 
L 22.956541 13.957 
L 22.997468 14.049064 
L 23.079694 14.003945 
L 23.368327 13.911975 
L 23.490903 13.909409 
L 23.655642 13.810433 
L 24.191981 13.615096 
L 24.274207 13.627753 
L 24.315917 13.513396 
L 24.356556 13.602155 
L 24.39736 13.65036 
L 24.521213 13.481643 
L 24.767807 13.482493 
L 24.932999 13.397576 
L 24.973555 13.477203 
L 25.015306 13.308251 
L 25.097285 13.398804 
L 26.044998 13.367759 
L 26.167863 13.501951 
L 26.250088 13.452708 
L 26.290851 13.515711 
L 26.332643 13.474795 
L 26.374229 13.566907 
L 26.703707 13.70557 
L 26.909127 13.910306 
L 26.950384 13.845556 
L 26.991723 13.976064 
L 27.114999 14.03414 
L 27.403262 14.344842 
L 27.444477 14.265277 
L 27.485776 14.397942 
L 27.733111 14.561023 
L 28.103805 14.967646 
L 28.227328 15.064654 
L 28.639073 15.444089 
L 29.174753 16.008504 
L 30.081086 17.025054 
L 30.862289 17.880334 
L 31.068367 18.068146 
L 32.139234 18.781975 
L 32.63378 18.976748 
L 32.922043 19.055331 
L 34.239626 19.261556 
L 36.339154 19.335451 
L 43.874043 18.771208 
L 47.374287 17.993305 
L 48.033326 17.760389 
L 48.898114 17.414832 
L 49.350375 17.183569 
L 50.132525 16.761045 
L 50.3799 16.58981 
L 50.544888 16.514339 
L 51.162505 16.115083 
L 51.162505 16.115083 
" clip-path="url(#p1e6ac753cb)" style="fill: none; stroke: #1f77b4; stroke-width: 0.6576; stroke-linecap: square"/>
   </g>
   <g id="patch_3">
    <path d="M 12.62592 37.87776 
L 12.62592 6.31296 
" style="fill: none; stroke: #000000; stroke-width: 0.6576; stroke-linejoin: miter; stroke-linecap: square"/>
   </g>
   <g id="patch_4">
    <path d="M 69.44256 37.87776 
L 69.44256 6.31296 
" style="fill: none; stroke: #000000; stroke-width: 0.6576; stroke-linejoin: miter; stroke-linecap: square"/>
   </g>
   <g id="patch_5">
    <path d="M 12.62592 37.87776 
L 69.44256 37.87776 
" style="fill: none; stroke: #000000; stroke-width: 0.6576; stroke-linejoin: miter; stroke-linecap: square"/>
   </g>
   <g id="patch_6">
    <path d="M 12.62592 6.31296 
L 69.44256 6.31296 
" style="fill: none; stroke: #000000; stroke-width: 0.6576; stroke-linejoin: miter; stroke-linecap: square"/>
   </g>
  </g>
 </g>
 <defs>
  <clipPath id="p1e6ac753cb">
   <rect x="12.62592" y="6.31296" width="56.81664" height="31.5648"/>
  </clipPath>
 </defs>
</svg>
